<svg width="73" height="72" viewBox="0 0 73 72" fill="none" xmlns="http://www.w3.org/2000/svg">
<g clip-path="url(#clip0_2699_1067)">
<g clip-path="url(#clip1_2699_1067)">
<g clip-path="url(#clip2_2699_1067)">
<path d="M28.2773 50.625C25.7922 50.625 23.7773 48.6101 23.7773 46.125V41.625C23.7773 39.1399 25.7922 37.125 28.2773 37.125V50.625Z" fill="#6FA4D8"/>
</g>
<g clip-path="url(#clip3_2699_1067)">
<path d="M46.2773 50.625C48.7625 50.625 50.7773 48.6101 50.7773 46.125V41.625C50.7773 39.1399 48.7625 37.125 46.2773 37.125V50.625Z" fill="#5C76B2"/>
</g>
<g clip-path="url(#clip4_2699_1067)">
<path d="M46.2774 16.875H28.2773C25.7922 16.875 23.7773 18.8899 23.7773 21.375V32.625C23.7773 35.1101 25.7922 37.125 28.2773 37.125V50.625C28.2773 54.3532 31.2991 57.375 35.0273 57.375H39.5274C43.2556 57.375 46.2774 54.3532 46.2774 50.625V37.125C48.7625 37.125 50.7774 35.1101 50.7774 32.625V21.375C50.7774 18.8899 48.7625 16.875 46.2774 16.875Z" fill="#F68820"/>
</g>
<g clip-path="url(#clip5_2699_1067)">
<path d="M32.7774 16.875H21.5273C20.2842 16.875 19.2773 15.8681 19.2773 14.625V13.5C19.2773 12.879 18.7733 12.375 18.1523 12.375C17.5313 12.375 17.0273 12.879 17.0273 13.5V16.875C17.0273 19.3601 19.0422 21.375 21.5273 21.375H30.5274C34.2556 21.375 37.2774 24.3968 37.2774 28.125V21.375C37.2774 18.8899 35.2625 16.875 32.7774 16.875Z" fill="#6FA4D8"/>
</g>
<g clip-path="url(#clip6_2699_1067)">
<path d="M41.7773 16.875H53.0273C54.2705 16.875 55.2773 15.8681 55.2773 14.625V13.5C55.2773 12.879 55.7813 12.375 56.4023 12.375C57.0233 12.375 57.5273 12.879 57.5273 13.5V16.875C57.5273 19.3601 55.5125 21.375 53.0273 21.375H44.0273C40.2991 21.375 37.2773 24.3968 37.2773 28.125V21.375C37.2773 18.8899 39.2922 16.875 41.7773 16.875Z" fill="#5C76B2"/>
</g>
<g clip-path="url(#clip7_2699_1067)">
<g clip-path="url(#clip8_2699_1067)">
<path d="M55.2773 66.375V70.875H17.0273V66.375H55.2773Z" fill="#F68820"/>
</g>
<g clip-path="url(#clip9_2699_1067)">
<path d="M55.2773 57.375V61.875H17.0273V57.375H55.2773Z" fill="#FBD301"/>
</g>
<g clip-path="url(#clip10_2699_1067)">
<path d="M17.0273 61.875H55.2773V66.375H17.0273V61.875Z" fill="#FBBE18"/>
</g>
<g clip-path="url(#clip11_2699_1067)">
<path d="M17.0273 57.375L4.53302 63.6221C4.1179 63.8291 4.1179 64.4209 4.53302 64.6279L17.0273 70.875V57.375Z" fill="#DB9E68"/>
</g>
<g clip-path="url(#clip12_2699_1067)">
<path d="M17.0274 57.375L4.53316 63.6221C4.32616 63.7256 4.22266 63.9247 4.22266 64.125H17.0274V57.375Z" fill="#EEC78E"/>
</g>
<g clip-path="url(#clip13_2699_1067)">
<path d="M5.77727 63L4.53302 63.6221C4.1179 63.8291 4.1179 64.4209 4.53302 64.6279L5.77727 65.25V63Z" fill="#353744"/>
</g>
<g clip-path="url(#clip14_2699_1067)">
<path d="M59.7773 57.375V70.875H55.2773V57.375H59.7773Z" fill="#B3B4B6"/>
</g>
<g clip-path="url(#clip15_2699_1067)">
<path d="M59.7773 57.375V64.125H55.2773V57.375H59.7773Z" fill="#DBDEE3"/>
</g>
<g clip-path="url(#clip16_2699_1067)">
<path d="M68.7774 67.5V60.75C68.7774 58.8859 67.2665 57.375 65.4023 57.375H59.7773V70.875H64.2773H65.4023C67.2665 70.875 68.7774 69.3641 68.7774 67.5Z" fill="#353744"/>
</g>
<g clip-path="url(#clip17_2699_1067)">
<path d="M68.7774 64.125V60.75C68.7774 58.8859 67.2665 57.375 65.4023 57.375H59.7773V64.125H68.7774Z" fill="#55525B"/>
</g>
</g>
<g clip-path="url(#clip18_2699_1067)">
<path d="M62.0273 7.875H12.5273C11.2842 7.875 10.2773 6.86812 10.2773 5.625C10.2773 4.38188 11.2842 3.375 12.5273 3.375H62.0273C63.2705 3.375 64.2773 4.38188 64.2773 5.625C64.2773 6.86812 63.2705 7.875 62.0273 7.875Z" fill="#353744"/>
</g>
<g clip-path="url(#clip19_2699_1067)">
<path d="M39.5274 5.625C39.5274 4.38188 38.5205 3.375 37.2774 3.375H12.5273C11.2842 3.375 10.2773 4.38188 10.2773 5.625C10.2773 6.867 11.2842 7.875 12.5273 7.875H37.2774C38.5205 7.875 39.5274 6.867 39.5274 5.625Z" fill="#55525B"/>
</g>
<g clip-path="url(#clip20_2699_1067)">
<path d="M51.3399 16.875H23.2148C22.5938 16.875 22.0898 16.371 22.0898 15.75V7.875H52.4649V15.75C52.4649 16.371 51.9609 16.875 51.3399 16.875Z" fill="#353744"/>
</g>
<g clip-path="url(#clip21_2699_1067)">
<path d="M37.2774 16.875H23.2148C22.5938 16.875 22.0898 16.371 22.0898 15.75V12.375H35.0274C36.2705 12.375 37.2774 13.3819 37.2774 14.625V16.875Z" fill="#55525B"/>
</g>
<g clip-path="url(#clip22_2699_1067)">
<path d="M57.5273 3.375H59.7773V16.875H57.5273V3.375Z" fill="#F68820"/>
</g>
<g clip-path="url(#clip23_2699_1067)">
<path d="M35.0273 3.375H59.7774C59.7774 2.13188 58.7705 1.125 57.5274 1.125H37.2773C36.0342 1.125 35.0273 2.13188 35.0273 3.375Z" fill="#FBBE18"/>
</g>
<g clip-path="url(#clip24_2699_1067)">
<path d="M58.6523 19.125C59.895 19.125 60.9023 18.1176 60.9023 16.875C60.9023 15.6324 59.895 14.625 58.6523 14.625C57.4097 14.625 56.4023 15.6324 56.4023 16.875C56.4023 18.1176 57.4097 19.125 58.6523 19.125Z" fill="#FBBE18"/>
</g>
<g clip-path="url(#clip25_2699_1067)">
<path d="M56.4023 16.875H60.9023V19.125H56.4023V16.875Z" fill="#B3B4B6"/>
</g>
<g clip-path="url(#clip26_2699_1067)">
<path d="M56.4023 16.875H58.6523V19.125H56.4023V16.875Z" fill="#DBDEE3"/>
</g>
<g clip-path="url(#clip27_2699_1067)">
<path d="M58.6523 28.125H56.4023C55.7813 28.125 55.2773 27.621 55.2773 27V20.25C55.2773 19.629 55.7813 19.125 56.4023 19.125H58.6523V28.125Z" fill="#FBBE18"/>
</g>
<g clip-path="url(#clip28_2699_1067)">
<path d="M58.6523 28.125H60.9023C61.5233 28.125 62.0273 27.621 62.0273 27V20.25C62.0273 19.629 61.5233 19.125 60.9023 19.125H58.6523V28.125Z" fill="#F68820"/>
</g>
<g clip-path="url(#clip29_2699_1067)">
<path d="M57.5273 28.125V20.8125C57.5273 20.502 57.2753 20.25 56.9648 20.25C56.6543 20.25 56.4023 20.502 56.4023 20.8125V28.125H57.5273Z" fill="#F68820"/>
</g>
<g clip-path="url(#clip30_2699_1067)">
<path d="M60.9023 28.125V24.1875C60.9023 23.877 60.6503 23.625 60.3398 23.625C60.0293 23.625 59.7773 23.877 59.7773 24.1875V28.125H60.9023Z" fill="#FBBE18"/>
</g>
<g clip-path="url(#clip31_2699_1067)">
<path d="M30.5274 34.875C34.2553 34.875 37.2774 31.8529 37.2774 28.125C37.2774 24.3971 34.2553 21.375 30.5274 21.375C26.7994 21.375 23.7773 24.3971 23.7773 28.125C23.7773 31.8529 26.7994 34.875 30.5274 34.875Z" fill="#DBDEE3"/>
</g>
<g clip-path="url(#clip32_2699_1067)">
<path d="M30.5274 34.875C34.2553 34.875 37.2774 31.8529 37.2774 28.125C37.2774 24.3971 34.2553 21.375 30.5274 21.375C26.7994 21.375 23.7773 24.3971 23.7773 28.125C23.7773 31.8529 26.7994 34.875 30.5274 34.875Z" fill="#DBDEE3"/>
</g>
<g clip-path="url(#clip33_2699_1067)">
<path d="M30.5273 30.375C31.77 30.375 32.7773 29.3676 32.7773 28.125C32.7773 26.8824 31.77 25.875 30.5273 25.875C29.2847 25.875 28.2773 26.8824 28.2773 28.125C28.2773 29.3676 29.2847 30.375 30.5273 30.375Z" fill="#55525B"/>
</g>
<g clip-path="url(#clip34_2699_1067)">
<path d="M44.0273 34.875C47.7553 34.875 50.7773 31.8529 50.7773 28.125C50.7773 24.3971 47.7553 21.375 44.0273 21.375C40.2994 21.375 37.2773 24.3971 37.2773 28.125C37.2773 31.8529 40.2994 34.875 44.0273 34.875Z" fill="#DBDEE3"/>
</g>
<g clip-path="url(#clip35_2699_1067)">
<path d="M44.0273 30.375C45.27 30.375 46.2773 29.3676 46.2773 28.125C46.2773 26.8824 45.27 25.875 44.0273 25.875C42.7847 25.875 41.7773 26.8824 41.7773 28.125C41.7773 29.3676 42.7847 30.375 44.0273 30.375Z" fill="#55525B"/>
</g>
<g clip-path="url(#clip36_2699_1067)">
<path d="M37.2776 28.125C38.6726 28.125 39.6671 29.4784 39.2508 30.8093L38.3508 33.6881C38.0223 34.7411 36.5317 34.7411 36.2032 33.6881L35.3032 30.8093C34.8881 29.4784 35.8826 28.125 37.2776 28.125Z" fill="#55525B"/>
</g>
<g clip-path="url(#clip37_2699_1067)">
<path d="M33.9023 39.375C32.6592 39.375 31.6523 38.3681 31.6523 37.125H36.1523C36.1523 38.3681 35.1455 39.375 33.9023 39.375Z" fill="#FBBE18"/>
</g>
<g clip-path="url(#clip38_2699_1067)">
<path d="M40.6523 39.375C39.4092 39.375 38.4023 38.3681 38.4023 37.125H42.9023C42.9023 38.3681 41.8955 39.375 40.6523 39.375Z" fill="#FBBE18"/>
</g>
<g clip-path="url(#clip39_2699_1067)">
<path d="M33.9023 48.375C32.6592 48.375 31.6523 47.3681 31.6523 46.125H36.1523C36.1523 47.3681 35.1455 48.375 33.9023 48.375Z" fill="#FBBE18"/>
</g>
<g clip-path="url(#clip40_2699_1067)">
<path d="M40.6523 48.375C39.4092 48.375 38.4023 47.3681 38.4023 46.125H42.9023C42.9023 47.3681 41.8955 48.375 40.6523 48.375Z" fill="#FBBE18"/>
</g>
<g clip-path="url(#clip41_2699_1067)">
<path d="M37.2774 43.875C36.0342 43.875 35.0273 42.8681 35.0273 41.625H39.5274C39.5274 42.8681 38.5205 43.875 37.2774 43.875Z" fill="#FBBE18"/>
</g>
<g clip-path="url(#clip42_2699_1067)">
<path d="M37.2774 52.875C36.0342 52.875 35.0273 51.8681 35.0273 50.625H39.5274C39.5274 51.8681 38.5205 52.875 37.2774 52.875Z" fill="#FBBE18"/>
</g>
<g clip-path="url(#clip43_2699_1067)">
<path d="M29.9648 59.625C30.5858 59.625 31.0898 59.121 31.0898 58.5V56.25C31.0898 55.629 30.5858 55.125 29.9648 55.125C29.3438 55.125 28.8398 55.629 28.8398 56.25V58.5C28.8398 59.121 29.3438 59.625 29.9648 59.625Z" fill="#6FA4D8"/>
</g>
<g clip-path="url(#clip44_2699_1067)">
<path d="M32.2148 59.625C32.8358 59.625 33.3398 59.121 33.3398 58.5V56.25C33.3398 55.629 32.8358 55.125 32.2148 55.125C31.5938 55.125 31.0898 55.629 31.0898 56.25V58.5C31.0898 59.121 31.5938 59.625 32.2148 59.625Z" fill="#6FA4D8"/>
</g>
<g clip-path="url(#clip45_2699_1067)">
<path d="M34.4648 59.625C35.0858 59.625 35.5898 59.121 35.5898 58.5V56.25C35.5898 55.629 35.0858 55.125 34.4648 55.125C33.8438 55.125 33.3398 55.629 33.3398 56.25V58.5C33.3398 59.121 33.8438 59.625 34.4648 59.625Z" fill="#6FA4D8"/>
</g>
<g clip-path="url(#clip46_2699_1067)">
<path d="M40.0898 59.625C40.7108 59.625 41.2148 59.121 41.2148 58.5V56.25C41.2148 55.629 40.7108 55.125 40.0898 55.125C39.4688 55.125 38.9648 55.629 38.9648 56.25V58.5C38.9648 59.121 39.4688 59.625 40.0898 59.625Z" fill="#6FA4D8"/>
</g>
<g clip-path="url(#clip47_2699_1067)">
<path d="M42.3398 59.625C42.9608 59.625 43.4648 59.121 43.4648 58.5V56.25C43.4648 55.629 42.9608 55.125 42.3398 55.125C41.7188 55.125 41.2148 55.629 41.2148 56.25V58.5C41.2148 59.121 41.7188 59.625 42.3398 59.625Z" fill="#6FA4D8"/>
</g>
<g clip-path="url(#clip48_2699_1067)">
<path d="M44.5898 59.625C45.2108 59.625 45.7148 59.121 45.7148 58.5V56.25C45.7148 55.629 45.2108 55.125 44.5898 55.125C43.9688 55.125 43.4648 55.629 43.4648 56.25V58.5C43.4648 59.121 43.9688 59.625 44.5898 59.625Z" fill="#6FA4D8"/>
</g>
</g>
</g>
<defs>
<clipPath id="clip0_2699_1067">
<rect width="72" height="72" fill="white" transform="translate(0.5)"/>
</clipPath>
<clipPath id="clip1_2699_1067">
<rect width="64.5556" height="69.75" fill="white" transform="translate(4.22168 1.125)"/>
</clipPath>
<clipPath id="clip2_2699_1067">
<rect width="4.5" height="13.5" fill="white" transform="translate(23.7773 37.125)"/>
</clipPath>
<clipPath id="clip3_2699_1067">
<rect width="4.5" height="13.5" fill="white" transform="translate(46.2773 37.125)"/>
</clipPath>
<clipPath id="clip4_2699_1067">
<rect width="27" height="40.5" fill="white" transform="translate(23.7773 16.875)"/>
</clipPath>
<clipPath id="clip5_2699_1067">
<rect width="20.25" height="15.75" fill="white" transform="translate(17.0273 12.375)"/>
</clipPath>
<clipPath id="clip6_2699_1067">
<rect width="20.25" height="15.75" fill="white" transform="translate(37.2773 12.375)"/>
</clipPath>
<clipPath id="clip7_2699_1067">
<rect width="64.5556" height="13.5" fill="white" transform="translate(4.22168 57.375)"/>
</clipPath>
<clipPath id="clip8_2699_1067">
<rect width="38.25" height="4.50002" fill="white" transform="translate(17.0273 66.375)"/>
</clipPath>
<clipPath id="clip9_2699_1067">
<rect width="38.25" height="4.50002" fill="white" transform="translate(17.0273 57.375)"/>
</clipPath>
<clipPath id="clip10_2699_1067">
<rect width="38.25" height="4.5" fill="white" transform="translate(17.0273 61.875)"/>
</clipPath>
<clipPath id="clip11_2699_1067">
<rect width="12.8056" height="13.5" fill="white" transform="translate(4.22168 57.375)"/>
</clipPath>
<clipPath id="clip12_2699_1067">
<rect width="12.8048" height="6.75" fill="white" transform="translate(4.22266 57.375)"/>
</clipPath>
<clipPath id="clip13_2699_1067">
<rect width="1.55559" height="2.25" fill="white" transform="translate(4.22168 63)"/>
</clipPath>
<clipPath id="clip14_2699_1067">
<rect width="4.5" height="13.5" fill="white" transform="translate(55.2773 57.375)"/>
</clipPath>
<clipPath id="clip15_2699_1067">
<rect width="4.5" height="6.75" fill="white" transform="translate(55.2773 57.375)"/>
</clipPath>
<clipPath id="clip16_2699_1067">
<rect width="9.00001" height="13.5" fill="white" transform="translate(59.7773 57.375)"/>
</clipPath>
<clipPath id="clip17_2699_1067">
<rect width="9.00001" height="6.75" fill="white" transform="translate(59.7773 57.375)"/>
</clipPath>
<clipPath id="clip18_2699_1067">
<rect width="54" height="4.5" fill="white" transform="translate(10.2773 3.375)"/>
</clipPath>
<clipPath id="clip19_2699_1067">
<rect width="29.25" height="4.5" fill="white" transform="translate(10.2773 3.375)"/>
</clipPath>
<clipPath id="clip20_2699_1067">
<rect width="30.375" height="9" fill="white" transform="translate(22.0898 7.875)"/>
</clipPath>
<clipPath id="clip21_2699_1067">
<rect width="15.1875" height="4.5" fill="white" transform="translate(22.0898 12.375)"/>
</clipPath>
<clipPath id="clip22_2699_1067">
<rect width="2.25" height="13.5" fill="white" transform="translate(57.5273 3.375)"/>
</clipPath>
<clipPath id="clip23_2699_1067">
<rect width="24.75" height="2.25" fill="white" transform="translate(35.0273 1.125)"/>
</clipPath>
<clipPath id="clip24_2699_1067">
<rect width="4.5" height="4.5" fill="white" transform="translate(56.4023 14.625)"/>
</clipPath>
<clipPath id="clip25_2699_1067">
<rect width="4.5" height="2.25" fill="white" transform="translate(56.4023 16.875)"/>
</clipPath>
<clipPath id="clip26_2699_1067">
<rect width="2.25" height="2.25" fill="white" transform="translate(56.4023 16.875)"/>
</clipPath>
<clipPath id="clip27_2699_1067">
<rect width="3.375" height="9" fill="white" transform="translate(55.2773 19.125)"/>
</clipPath>
<clipPath id="clip28_2699_1067">
<rect width="3.375" height="9" fill="white" transform="translate(58.6523 19.125)"/>
</clipPath>
<clipPath id="clip29_2699_1067">
<rect width="1.125" height="7.875" fill="white" transform="translate(56.4023 20.25)"/>
</clipPath>
<clipPath id="clip30_2699_1067">
<rect width="1.125" height="4.5" fill="white" transform="translate(59.7773 23.625)"/>
</clipPath>
<clipPath id="clip31_2699_1067">
<rect width="13.5" height="13.5" fill="white" transform="translate(23.7773 21.375)"/>
</clipPath>
<clipPath id="clip32_2699_1067">
<rect width="13.5" height="13.5" fill="white" transform="translate(23.7773 21.375)"/>
</clipPath>
<clipPath id="clip33_2699_1067">
<rect width="4.5" height="4.5" fill="white" transform="translate(28.2773 25.875)"/>
</clipPath>
<clipPath id="clip34_2699_1067">
<rect width="13.5" height="13.5" fill="white" transform="translate(37.2773 21.375)"/>
</clipPath>
<clipPath id="clip35_2699_1067">
<rect width="4.5" height="4.5" fill="white" transform="translate(41.7773 25.875)"/>
</clipPath>
<clipPath id="clip36_2699_1067">
<rect width="4.13847" height="6.35288" fill="white" transform="translate(35.208 28.125)"/>
</clipPath>
<clipPath id="clip37_2699_1067">
<rect width="4.5" height="2.25" fill="white" transform="translate(31.6523 37.125)"/>
</clipPath>
<clipPath id="clip38_2699_1067">
<rect width="4.5" height="2.25" fill="white" transform="translate(38.4023 37.125)"/>
</clipPath>
<clipPath id="clip39_2699_1067">
<rect width="4.5" height="2.25" fill="white" transform="translate(31.6523 46.125)"/>
</clipPath>
<clipPath id="clip40_2699_1067">
<rect width="4.5" height="2.25" fill="white" transform="translate(38.4023 46.125)"/>
</clipPath>
<clipPath id="clip41_2699_1067">
<rect width="4.50002" height="2.25" fill="white" transform="translate(35.0273 41.625)"/>
</clipPath>
<clipPath id="clip42_2699_1067">
<rect width="4.50002" height="2.25" fill="white" transform="translate(35.0273 50.625)"/>
</clipPath>
<clipPath id="clip43_2699_1067">
<rect width="2.25" height="4.5" fill="white" transform="translate(28.8398 55.125)"/>
</clipPath>
<clipPath id="clip44_2699_1067">
<rect width="2.25" height="4.5" fill="white" transform="translate(31.0898 55.125)"/>
</clipPath>
<clipPath id="clip45_2699_1067">
<rect width="2.25" height="4.5" fill="white" transform="translate(33.3398 55.125)"/>
</clipPath>
<clipPath id="clip46_2699_1067">
<rect width="2.25" height="4.5" fill="white" transform="translate(38.9648 55.125)"/>
</clipPath>
<clipPath id="clip47_2699_1067">
<rect width="2.25" height="4.5" fill="white" transform="translate(41.2148 55.125)"/>
</clipPath>
<clipPath id="clip48_2699_1067">
<rect width="2.25" height="4.5" fill="white" transform="translate(43.4648 55.125)"/>
</clipPath>
</defs>
</svg>
