<svg width="73" height="72" viewBox="0 0 73 72" fill="none" xmlns="http://www.w3.org/2000/svg">
<g clip-path="url(#clip0_2699_1163)">
<g clip-path="url(#clip1_2699_1163)">
<g clip-path="url(#clip2_2699_1163)">
<g clip-path="url(#clip3_2699_1163)">
<path d="M57.875 11.25H37.625C35.1399 11.25 33.125 13.2649 33.125 15.75V29.25C33.125 31.7351 35.1399 33.75 37.625 33.75H55.625L58.2046 36.3296C58.4229 36.5479 58.6895 36.6401 58.9539 36.6491V36.6615H61.25C61.871 36.6615 62.375 36.1575 62.375 35.5365V15.75C62.375 13.2649 60.3601 11.25 57.875 11.25Z" fill="#F68820"/>
</g>
<g clip-path="url(#clip4_2699_1163)">
<path d="M55.625 11.25H37.625C35.1399 11.25 33.125 13.2649 33.125 15.75V29.25C33.125 31.7351 35.1399 33.75 37.625 33.75H55.625L58.2046 36.3296C58.9134 37.0384 60.125 36.5366 60.125 35.5343V15.75C60.125 13.2649 58.1101 11.25 55.625 11.25Z" fill="#FBBE18"/>
</g>
</g>
<g clip-path="url(#clip5_2699_1163)">
<path d="M39.875 24.75C41.1176 24.75 42.125 23.7426 42.125 22.5C42.125 21.2574 41.1176 20.25 39.875 20.25C38.6324 20.25 37.625 21.2574 37.625 22.5C37.625 23.7426 38.6324 24.75 39.875 24.75Z" fill="#F68820"/>
</g>
<g clip-path="url(#clip6_2699_1163)">
<path d="M46.625 24.75C47.8676 24.75 48.875 23.7426 48.875 22.5C48.875 21.2574 47.8676 20.25 46.625 20.25C45.3824 20.25 44.375 21.2574 44.375 22.5C44.375 23.7426 45.3824 24.75 46.625 24.75Z" fill="#F68820"/>
</g>
<g clip-path="url(#clip7_2699_1163)">
<path d="M53.375 24.75C54.6176 24.75 55.625 23.7426 55.625 22.5C55.625 21.2574 54.6176 20.25 53.375 20.25C52.1324 20.25 51.125 21.2574 51.125 22.5C51.125 23.7426 52.1324 24.75 53.375 24.75Z" fill="#F68820"/>
</g>
<g clip-path="url(#clip8_2699_1163)">
<g clip-path="url(#clip9_2699_1163)">
<path d="M35.375 2.25H15.125C12.6399 2.25 10.625 4.26487 10.625 6.75V26.5343C10.625 27.5366 11.8366 28.0384 12.5454 27.3296L15.125 24.75H35.375C37.8601 24.75 39.875 22.7351 39.875 20.25V6.75C39.875 4.26487 37.8601 2.25 35.375 2.25Z" fill="#5C76B2"/>
</g>
<g clip-path="url(#clip10_2699_1163)">
<path d="M33.125 2.25H15.125C12.6399 2.25 10.625 4.26487 10.625 6.75V26.5343C10.625 27.5366 11.8366 28.0384 12.5454 27.3296L15.125 24.75H33.125C35.6101 24.75 37.625 22.7351 37.625 20.25V6.75C37.625 4.26487 35.6101 2.25 33.125 2.25Z" fill="#6FA4D8"/>
</g>
</g>
<g clip-path="url(#clip11_2699_1163)">
<g clip-path="url(#clip12_2699_1163)">
<g clip-path="url(#clip13_2699_1163)">
<path d="M19.625 42.75C15.8968 42.75 12.875 45.7718 12.875 49.5V63H20.1875V60.75H24.125C25.3681 60.75 26.375 59.742 26.375 58.5V49.5C26.375 45.7718 23.3532 42.75 19.625 42.75Z" fill="#EEC78E"/>
</g>
<g clip-path="url(#clip14_2699_1163)">
<path d="M24.9688 56.25C24.1925 56.25 23.5625 55.62 23.5625 54.8438V51.75C25.1161 51.75 26.375 53.0089 26.375 54.5625V54.8438C26.375 55.62 25.745 56.25 24.9688 56.25Z" fill="#DB9E68"/>
</g>
<g clip-path="url(#clip15_2699_1163)">
<path d="M21.875 51.75C22.1857 51.75 22.4375 51.4982 22.4375 51.1875C22.4375 50.8768 22.1857 50.625 21.875 50.625C21.5643 50.625 21.3125 50.8768 21.3125 51.1875C21.3125 51.4982 21.5643 51.75 21.875 51.75Z" fill="#55525B"/>
</g>
<g clip-path="url(#clip16_2699_1163)">
<path d="M25.25 51.75C25.5607 51.75 25.8125 51.4982 25.8125 51.1875C25.8125 50.8768 25.5607 50.625 25.25 50.625C24.9393 50.625 24.6875 50.8768 24.6875 51.1875C24.6875 51.4982 24.9393 51.75 25.25 51.75Z" fill="#55525B"/>
</g>
<g clip-path="url(#clip17_2699_1163)">
<path d="M20.1875 63H12.875C12.875 61.7569 13.8819 60.75 15.125 60.75H20.1875V63Z" fill="#DB9E68"/>
</g>
<g clip-path="url(#clip18_2699_1163)">
<path d="M25.25 57.375H21.875C21.875 57.996 22.379 58.5 23 58.5H24.125C24.746 58.5 25.25 57.996 25.25 57.375Z" fill="#55525B"/>
</g>
</g>
<g clip-path="url(#clip19_2699_1163)">
<path d="M25.25 40.5H17.375C13.6468 40.5 10.625 43.5218 10.625 47.25V56.25C10.625 57.4931 11.6319 58.5 12.875 58.5H15.125C16.3681 58.5 17.375 57.4931 17.375 56.25V52.875H17.9375C18.869 52.875 19.625 52.119 19.625 51.1875V48.9375C19.625 48.006 20.381 47.25 21.3125 47.25H25.25C27.1141 47.25 28.625 45.7391 28.625 43.875C28.625 42.0109 27.1141 40.5 25.25 40.5Z" fill="#F68820"/>
</g>
<g clip-path="url(#clip20_2699_1163)">
<path d="M17.375 51.75C16.1319 51.75 15.125 52.7569 15.125 54C15.125 55.2431 16.1319 56.25 17.375 56.25V51.75Z" fill="#DB9E68"/>
</g>
<g clip-path="url(#clip21_2699_1163)">
<path d="M23 63H12.875C11.0109 63 9.5 64.5109 9.5 66.375V69.75H26.375V66.375C26.375 64.5109 24.8641 63 23 63Z" fill="#5C76B2"/>
</g>
<g clip-path="url(#clip22_2699_1163)">
<path d="M12.875 63C11.0109 63 9.5 64.5109 9.5 66.375V69.75H16.25V66.375C16.25 64.5109 14.7391 63 12.875 63Z" fill="#6FA4D8"/>
</g>
</g>
<g clip-path="url(#clip23_2699_1163)">
<g clip-path="url(#clip24_2699_1163)">
<g clip-path="url(#clip25_2699_1163)">
<path d="M53.375 42.75C49.6468 42.75 46.625 45.7718 46.625 49.5V58.5C46.625 59.742 47.6319 60.75 48.875 60.75H52.8125V63H60.125V49.5C60.125 45.7718 57.1032 42.75 53.375 42.75Z" fill="#EEC78E"/>
</g>
<g clip-path="url(#clip26_2699_1163)">
<path d="M48.0312 56.25C48.8075 56.25 49.4375 55.62 49.4375 54.8438V51.75C47.8839 51.75 46.625 53.0089 46.625 54.5625V54.8438C46.625 55.62 47.255 56.25 48.0312 56.25Z" fill="#DB9E68"/>
</g>
<g clip-path="url(#clip27_2699_1163)">
<path d="M51.125 51.75C51.4357 51.75 51.6875 51.4982 51.6875 51.1875C51.6875 50.8768 51.4357 50.625 51.125 50.625C50.8143 50.625 50.5625 50.8768 50.5625 51.1875C50.5625 51.4982 50.8143 51.75 51.125 51.75Z" fill="#55525B"/>
</g>
<g clip-path="url(#clip28_2699_1163)">
<path d="M47.75 51.75C48.0607 51.75 48.3125 51.4982 48.3125 51.1875C48.3125 50.8768 48.0607 50.625 47.75 50.625C47.4393 50.625 47.1875 50.8768 47.1875 51.1875C47.1875 51.4982 47.4393 51.75 47.75 51.75Z" fill="#55525B"/>
</g>
<g clip-path="url(#clip29_2699_1163)">
<path d="M52.8125 63H60.125C60.125 61.7569 59.1181 60.75 57.875 60.75H52.8125V63Z" fill="#DB9E68"/>
</g>
<g clip-path="url(#clip30_2699_1163)">
<path d="M47.75 57.375H51.125C51.125 57.996 50.621 58.5 50 58.5H48.875C48.254 58.5 47.75 57.996 47.75 57.375Z" fill="#55525B"/>
</g>
</g>
<g clip-path="url(#clip31_2699_1163)">
<path d="M55.625 40.5H52.25C48.5218 40.5 45.5 43.5218 45.5 47.25H51.6875C52.619 47.25 53.375 48.006 53.375 48.9375V50.0625C53.375 50.994 54.131 51.75 55.0625 51.75H55.625V60.75C55.625 61.9931 54.6181 63 53.375 63H60.125C61.3681 63 62.375 61.9931 62.375 60.75V47.25C62.375 43.5218 59.3532 40.5 55.625 40.5Z" fill="#55525B"/>
</g>
<g clip-path="url(#clip32_2699_1163)">
<path d="M55.625 51.75C56.8681 51.75 57.875 52.7569 57.875 54C57.875 55.2431 56.8681 56.25 55.625 56.25V51.75Z" fill="#DB9E68"/>
</g>
<g clip-path="url(#clip33_2699_1163)">
<path d="M60.125 63H50C48.1359 63 46.625 64.5109 46.625 66.375V69.75H63.5V66.375C63.5 64.5109 61.9891 63 60.125 63Z" fill="#FBBE18"/>
</g>
<g clip-path="url(#clip34_2699_1163)">
<path d="M60.125 63C61.9891 63 63.5 64.5109 63.5 66.375V69.75H56.75V66.375C56.75 64.5109 58.2609 63 60.125 63Z" fill="#F68820"/>
</g>
</g>
<g clip-path="url(#clip35_2699_1163)">
<path d="M42.8517 47.9772L40.8346 45.9601C40.4814 45.6068 39.875 45.8577 39.875 46.3583V47.2505H32.5625C32.252 47.2505 32 47.5025 32 47.813V48.938C32 49.2485 32.252 49.5005 32.5625 49.5005H39.875V50.3926C39.875 50.8932 40.4814 51.1441 40.8358 50.7908L42.8529 48.7737C43.0722 48.5532 43.0723 48.1977 42.8517 47.9772Z" fill="#F68820"/>
</g>
<g clip-path="url(#clip36_2699_1163)">
<path d="M40.4373 55.1255H33.1248V54.2333C33.1248 53.7327 32.5184 53.4818 32.1641 53.8351L30.147 55.8522C29.9276 56.0716 29.9276 56.4282 30.147 56.6476L32.1641 58.6647C32.5184 59.0191 33.1248 58.7682 33.1248 58.2676V57.3755H40.4373C40.7478 57.3755 40.9998 57.1235 40.9998 56.813V55.688C40.9998 55.3775 40.7478 55.1255 40.4373 55.1255Z" fill="#F68820"/>
</g>
<g clip-path="url(#clip37_2699_1163)">
<path d="M17.375 15.75C18.6176 15.75 19.625 14.7426 19.625 13.5C19.625 12.2574 18.6176 11.25 17.375 11.25C16.1324 11.25 15.125 12.2574 15.125 13.5C15.125 14.7426 16.1324 15.75 17.375 15.75Z" fill="#5C76B2"/>
</g>
<g clip-path="url(#clip38_2699_1163)">
<path d="M24.125 15.75C25.3676 15.75 26.375 14.7426 26.375 13.5C26.375 12.2574 25.3676 11.25 24.125 11.25C22.8824 11.25 21.875 12.2574 21.875 13.5C21.875 14.7426 22.8824 15.75 24.125 15.75Z" fill="#5C76B2"/>
</g>
<g clip-path="url(#clip39_2699_1163)">
<path d="M30.875 15.75C32.1176 15.75 33.125 14.7426 33.125 13.5C33.125 12.2574 32.1176 11.25 30.875 11.25C29.6324 11.25 28.625 12.2574 28.625 13.5C28.625 14.7426 29.6324 15.75 30.875 15.75Z" fill="#5C76B2"/>
</g>
</g>
</g>
<defs>
<clipPath id="clip0_2699_1163">
<rect width="72" height="72" fill="white" transform="translate(0.5)"/>
</clipPath>
<clipPath id="clip1_2699_1163">
<rect width="54" height="67.5" fill="white" transform="translate(9.5 2.25)"/>
</clipPath>
<clipPath id="clip2_2699_1163">
<rect width="29.25" height="25.4115" fill="white" transform="translate(33.125 11.25)"/>
</clipPath>
<clipPath id="clip3_2699_1163">
<rect width="29.25" height="25.4115" fill="white" transform="translate(33.125 11.25)"/>
</clipPath>
<clipPath id="clip4_2699_1163">
<rect width="27" height="25.4115" fill="white" transform="translate(33.125 11.25)"/>
</clipPath>
<clipPath id="clip5_2699_1163">
<rect width="4.5" height="4.5" fill="white" transform="translate(37.625 20.25)"/>
</clipPath>
<clipPath id="clip6_2699_1163">
<rect width="4.5" height="4.5" fill="white" transform="translate(44.375 20.25)"/>
</clipPath>
<clipPath id="clip7_2699_1163">
<rect width="4.5" height="4.5" fill="white" transform="translate(51.125 20.25)"/>
</clipPath>
<clipPath id="clip8_2699_1163">
<rect width="29.25" height="25.4115" fill="white" transform="translate(10.625 2.25)"/>
</clipPath>
<clipPath id="clip9_2699_1163">
<rect width="29.25" height="25.4115" fill="white" transform="translate(10.625 2.25)"/>
</clipPath>
<clipPath id="clip10_2699_1163">
<rect width="27" height="25.4115" fill="white" transform="translate(10.625 2.25)"/>
</clipPath>
<clipPath id="clip11_2699_1163">
<rect width="19.125" height="29.25" fill="white" transform="translate(9.5 40.5)"/>
</clipPath>
<clipPath id="clip12_2699_1163">
<rect width="13.5" height="20.25" fill="white" transform="translate(12.875 42.75)"/>
</clipPath>
<clipPath id="clip13_2699_1163">
<rect width="13.5" height="20.25" fill="white" transform="translate(12.875 42.75)"/>
</clipPath>
<clipPath id="clip14_2699_1163">
<rect width="2.8125" height="4.5" fill="white" transform="translate(23.5625 51.75)"/>
</clipPath>
<clipPath id="clip15_2699_1163">
<rect width="1.125" height="1.125" fill="white" transform="translate(21.3125 50.625)"/>
</clipPath>
<clipPath id="clip16_2699_1163">
<rect width="1.125" height="1.125" fill="white" transform="translate(24.6875 50.625)"/>
</clipPath>
<clipPath id="clip17_2699_1163">
<rect width="7.3125" height="2.25" fill="white" transform="translate(12.875 60.75)"/>
</clipPath>
<clipPath id="clip18_2699_1163">
<rect width="3.375" height="1.125" fill="white" transform="translate(21.875 57.375)"/>
</clipPath>
<clipPath id="clip19_2699_1163">
<rect width="18" height="18" fill="white" transform="translate(10.625 40.5)"/>
</clipPath>
<clipPath id="clip20_2699_1163">
<rect width="2.25" height="4.5" fill="white" transform="translate(15.125 51.75)"/>
</clipPath>
<clipPath id="clip21_2699_1163">
<rect width="16.875" height="6.75" fill="white" transform="translate(9.5 63)"/>
</clipPath>
<clipPath id="clip22_2699_1163">
<rect width="6.75" height="6.75" fill="white" transform="translate(9.5 63)"/>
</clipPath>
<clipPath id="clip23_2699_1163">
<rect width="18" height="29.25" fill="white" transform="translate(45.5 40.5)"/>
</clipPath>
<clipPath id="clip24_2699_1163">
<rect width="13.5" height="20.25" fill="white" transform="translate(46.625 42.75)"/>
</clipPath>
<clipPath id="clip25_2699_1163">
<rect width="13.5" height="20.25" fill="white" transform="translate(46.625 42.75)"/>
</clipPath>
<clipPath id="clip26_2699_1163">
<rect width="2.8125" height="4.5" fill="white" transform="translate(46.625 51.75)"/>
</clipPath>
<clipPath id="clip27_2699_1163">
<rect width="1.125" height="1.125" fill="white" transform="translate(50.5625 50.625)"/>
</clipPath>
<clipPath id="clip28_2699_1163">
<rect width="1.125" height="1.125" fill="white" transform="translate(47.1875 50.625)"/>
</clipPath>
<clipPath id="clip29_2699_1163">
<rect width="7.3125" height="2.25" fill="white" transform="translate(52.8125 60.75)"/>
</clipPath>
<clipPath id="clip30_2699_1163">
<rect width="3.375" height="1.125" fill="white" transform="translate(47.75 57.375)"/>
</clipPath>
<clipPath id="clip31_2699_1163">
<rect width="16.875" height="22.5" fill="white" transform="translate(45.5 40.5)"/>
</clipPath>
<clipPath id="clip32_2699_1163">
<rect width="2.25" height="4.5" fill="white" transform="translate(55.625 51.75)"/>
</clipPath>
<clipPath id="clip33_2699_1163">
<rect width="16.875" height="6.75" fill="white" transform="translate(46.625 63)"/>
</clipPath>
<clipPath id="clip34_2699_1163">
<rect width="6.75" height="6.75" fill="white" transform="translate(56.75 63)"/>
</clipPath>
<clipPath id="clip35_2699_1163">
<rect width="11.0173" height="5.16107" fill="white" transform="translate(32 45.7949)"/>
</clipPath>
<clipPath id="clip36_2699_1163">
<rect width="11.0174" height="5.16072" fill="white" transform="translate(29.9824 53.6699)"/>
</clipPath>
<clipPath id="clip37_2699_1163">
<rect width="4.5" height="4.5" fill="white" transform="translate(15.125 11.25)"/>
</clipPath>
<clipPath id="clip38_2699_1163">
<rect width="4.5" height="4.5" fill="white" transform="translate(21.875 11.25)"/>
</clipPath>
<clipPath id="clip39_2699_1163">
<rect width="4.5" height="4.5" fill="white" transform="translate(28.625 11.25)"/>
</clipPath>
</defs>
</svg>
