<svg width="73" height="72" viewBox="0 0 73 72" fill="none" xmlns="http://www.w3.org/2000/svg">
<g clip-path="url(#clip0_2699_973)">
<g clip-path="url(#clip1_2699_973)">
<g clip-path="url(#clip2_2699_973)">
<path d="M70.25 54H7.25V18C7.25 15.5149 9.26487 13.5 11.75 13.5H65.75C68.2351 13.5 70.25 15.5149 70.25 18V54Z" fill="#353744"/>
</g>
<g clip-path="url(#clip3_2699_973)">
<path d="M70.25 54H7.25V56.25C7.25 58.7351 9.26487 60.75 11.75 60.75H65.75C68.2351 60.75 70.25 58.7351 70.25 56.25V54Z" fill="#808080"/>
</g>
<g clip-path="url(#clip4_2699_973)">
<path d="M65.75 54H7.25V18C7.25 15.5149 9.26487 13.5 11.75 13.5H61.25C63.7351 13.5 65.75 15.5149 65.75 18V54Z" fill="#55525B"/>
</g>
<g clip-path="url(#clip5_2699_973)">
<path d="M65.75 54H7.25V56.25C7.25 58.7351 9.26487 60.75 11.75 60.75H61.25C63.7351 60.75 65.75 58.7351 65.75 56.25V54Z" fill="#DBDEE3"/>
</g>
<g clip-path="url(#clip6_2699_973)">
<path d="M59.5625 18H13.4375C12.506 18 11.75 18.756 11.75 19.6875V47.8125C11.75 48.744 12.506 49.5 13.4375 49.5H59.5625C60.494 49.5 61.25 48.744 61.25 47.8125V19.6875C61.25 18.756 60.494 18 59.5625 18Z" fill="#FBBE18"/>
</g>
<g clip-path="url(#clip7_2699_973)">
<path d="M18.5 27H43.25C44.4931 27 45.5 25.9931 45.5 24.75C45.5 23.5069 44.4931 22.5 43.25 22.5H18.5C17.2569 22.5 16.25 23.5069 16.25 24.75C16.25 25.9931 17.2569 27 18.5 27Z" fill="#F68820"/>
</g>
<g clip-path="url(#clip8_2699_973)">
<path d="M18.5 36H43.25C44.4931 36 45.5 34.9931 45.5 33.75C45.5 32.5069 44.4931 31.5 43.25 31.5H18.5C17.2569 31.5 16.25 32.5069 16.25 33.75C16.25 34.9931 17.2569 36 18.5 36Z" fill="#F68820"/>
</g>
<g clip-path="url(#clip9_2699_973)">
<path d="M18.5 45H43.25C44.4931 45 45.5 43.9931 45.5 42.75C45.5 41.5069 44.4931 40.5 43.25 40.5H18.5C17.2569 40.5 16.25 41.5069 16.25 42.75C16.25 43.9931 17.2569 45 18.5 45Z" fill="#F68820"/>
</g>
<g clip-path="url(#clip10_2699_973)">
<path d="M47.1875 65.25H42.6875V60.75H47.1875V65.25Z" fill="#808080"/>
</g>
<g clip-path="url(#clip11_2699_973)">
<path d="M32 60.75H42.6875V65.25H32V60.75Z" fill="#B3B4B6"/>
</g>
<g clip-path="url(#clip12_2699_973)">
<path d="M51.6875 65.25H23.5625C21.0774 65.25 19.0625 67.2649 19.0625 69.75H56.1875C56.1875 67.2649 54.1726 65.25 51.6875 65.25Z" fill="#DBDEE3"/>
</g>
<g clip-path="url(#clip13_2699_973)">
<path d="M51.6875 65.25H47.1875C44.7024 65.25 42.6875 67.2649 42.6875 69.75H56.1875C56.1875 67.2649 54.1726 65.25 51.6875 65.25Z" fill="#808080"/>
</g>
<g clip-path="url(#clip14_2699_973)">
<path d="M19.625 2.25H16.25C8.79463 2.25 2.75 8.29463 2.75 15.75C2.75 23.2054 8.79463 29.25 16.25 29.25H19.625C27.0804 29.25 33.125 23.2054 33.125 15.75C33.125 8.29463 27.0804 2.25 19.625 2.25Z" fill="#5C76B2"/>
</g>
<g clip-path="url(#clip15_2699_973)">
<path d="M16.25 29.25C23.7058 29.25 29.75 23.2058 29.75 15.75C29.75 8.29416 23.7058 2.25 16.25 2.25C8.79416 2.25 2.75 8.29416 2.75 15.75C2.75 23.2058 8.79416 29.25 16.25 29.25Z" fill="#6FA4D8"/>
</g>
<g clip-path="url(#clip16_2699_973)">
<path d="M16.25 27C22.4632 27 27.5 21.9632 27.5 15.75C27.5 9.5368 22.4632 4.5 16.25 4.5C10.0368 4.5 5 9.5368 5 15.75C5 21.9632 10.0368 27 16.25 27Z" fill="#55525B"/>
</g>
<g clip-path="url(#clip17_2699_973)">
<path d="M16.25 16.3125C15.9395 16.3125 15.6875 16.0605 15.6875 15.75V6.75C15.6875 6.4395 15.9395 6.1875 16.25 6.1875C16.5605 6.1875 16.8125 6.4395 16.8125 6.75V15.75C16.8125 16.0605 16.5605 16.3125 16.25 16.3125Z" fill="#6FA4D8"/>
</g>
<g clip-path="url(#clip18_2699_973)">
<path d="M11.4778 21.085C11.3338 21.085 11.1898 21.0299 11.0796 20.9208C10.8602 20.7014 10.8602 20.3448 11.0796 20.1254L15.8518 15.352C16.0712 15.1327 16.4278 15.1327 16.6472 15.352C16.8666 15.5714 16.8666 15.928 16.6472 16.1474L11.8749 20.9208C11.7658 21.0299 11.6218 21.085 11.4778 21.085Z" fill="#6FA4D8"/>
</g>
<g clip-path="url(#clip19_2699_973)">
<path d="M16.25 18C17.4926 18 18.5 16.9926 18.5 15.75C18.5 14.5074 17.4926 13.5 16.25 13.5C15.0074 13.5 14 14.5074 14 15.75C14 16.9926 15.0074 18 16.25 18Z" fill="#F68820"/>
</g>
<g clip-path="url(#clip20_2699_973)">
<path d="M16.25 16.875C16.8713 16.875 17.375 16.3713 17.375 15.75C17.375 15.1287 16.8713 14.625 16.25 14.625C15.6287 14.625 15.125 15.1287 15.125 15.75C15.125 16.3713 15.6287 16.875 16.25 16.875Z" fill="#DBDEE3"/>
</g>
<g clip-path="url(#clip21_2699_973)">
<path d="M8.375 16.3125H7.25C6.9395 16.3125 6.6875 16.0605 6.6875 15.75C6.6875 15.4395 6.9395 15.1875 7.25 15.1875H8.375C8.6855 15.1875 8.9375 15.4395 8.9375 15.75C8.9375 16.0605 8.6855 16.3125 8.375 16.3125Z" fill="#F68820"/>
</g>
<g clip-path="url(#clip22_2699_973)">
<path d="M16.25 25.3125C15.9395 25.3125 15.6875 25.0605 15.6875 24.75V23.625C15.6875 23.3145 15.9395 23.0625 16.25 23.0625C16.5605 23.0625 16.8125 23.3145 16.8125 23.625V24.75C16.8125 25.0605 16.5605 25.3125 16.25 25.3125Z" fill="#F68820"/>
</g>
<g clip-path="url(#clip23_2699_973)">
<path d="M25.25 16.3125H24.125C23.8145 16.3125 23.5625 16.0605 23.5625 15.75C23.5625 15.4395 23.8145 15.1875 24.125 15.1875H25.25C25.5605 15.1875 25.8125 15.4395 25.8125 15.75C25.8125 16.0605 25.5605 16.3125 25.25 16.3125Z" fill="#F68820"/>
</g>
<g clip-path="url(#clip24_2699_973)">
<path d="M53.375 45C52.1319 45 51.125 43.9931 51.125 42.75C51.125 41.5069 52.1319 40.5 53.375 40.5C54.6181 40.5 55.625 41.5069 55.625 42.75C55.625 43.9931 54.6181 45 53.375 45Z" fill="#F68820"/>
</g>
<g clip-path="url(#clip25_2699_973)">
<path d="M52.531 23.3435L53.3747 24.1872L55.906 21.656C56.3717 21.1902 57.1277 21.1902 57.5935 21.656C58.0592 22.1217 58.0592 22.8777 57.5935 23.3435L54.2185 26.7185C53.7527 27.1842 52.9967 27.1842 52.531 26.7185L50.8435 25.031C50.3777 24.5652 50.3777 23.8092 50.8435 23.3435C51.3092 22.8777 52.0652 22.8777 52.531 23.3435Z" fill="#5C76B2"/>
</g>
<g clip-path="url(#clip26_2699_973)">
<path d="M52.531 32.3435L53.3747 33.1872L55.906 30.656C56.3717 30.1902 57.1277 30.1902 57.5935 30.656C58.0592 31.1217 58.0592 31.8777 57.5935 32.3435L54.2185 35.7185C53.7527 36.1842 52.9967 36.1842 52.531 35.7185L50.8435 34.031C50.3777 33.5652 50.3777 32.8092 50.8435 32.3435C51.3092 31.8777 52.0652 31.8777 52.531 32.3435Z" fill="#5C76B2"/>
</g>
</g>
</g>
<defs>
<clipPath id="clip0_2699_973">
<rect width="72" height="72" fill="white" transform="translate(0.5)"/>
</clipPath>
<clipPath id="clip1_2699_973">
<rect width="67.5" height="67.5" fill="white" transform="translate(2.75 2.25)"/>
</clipPath>
<clipPath id="clip2_2699_973">
<rect width="63" height="40.5" fill="white" transform="translate(7.25 13.5)"/>
</clipPath>
<clipPath id="clip3_2699_973">
<rect width="63" height="6.75" fill="white" transform="translate(7.25 54)"/>
</clipPath>
<clipPath id="clip4_2699_973">
<rect width="58.5" height="40.5" fill="white" transform="translate(7.25 13.5)"/>
</clipPath>
<clipPath id="clip5_2699_973">
<rect width="58.5" height="6.75" fill="white" transform="translate(7.25 54)"/>
</clipPath>
<clipPath id="clip6_2699_973">
<rect width="49.5" height="31.5" fill="white" transform="translate(11.75 18)"/>
</clipPath>
<clipPath id="clip7_2699_973">
<rect width="29.25" height="4.5" fill="white" transform="translate(16.25 22.5)"/>
</clipPath>
<clipPath id="clip8_2699_973">
<rect width="29.25" height="4.5" fill="white" transform="translate(16.25 31.5)"/>
</clipPath>
<clipPath id="clip9_2699_973">
<rect width="29.25" height="4.5" fill="white" transform="translate(16.25 40.5)"/>
</clipPath>
<clipPath id="clip10_2699_973">
<rect width="4.5" height="4.5" fill="white" transform="translate(42.6875 60.75)"/>
</clipPath>
<clipPath id="clip11_2699_973">
<rect width="10.6875" height="4.5" fill="white" transform="translate(32 60.75)"/>
</clipPath>
<clipPath id="clip12_2699_973">
<rect width="37.125" height="4.5" fill="white" transform="translate(19.0625 65.25)"/>
</clipPath>
<clipPath id="clip13_2699_973">
<rect width="13.5" height="4.5" fill="white" transform="translate(42.6875 65.25)"/>
</clipPath>
<clipPath id="clip14_2699_973">
<rect width="30.375" height="27" fill="white" transform="translate(2.75 2.25)"/>
</clipPath>
<clipPath id="clip15_2699_973">
<rect width="27" height="27" fill="white" transform="translate(2.75 2.25)"/>
</clipPath>
<clipPath id="clip16_2699_973">
<rect width="22.5" height="22.5" fill="white" transform="translate(5 4.5)"/>
</clipPath>
<clipPath id="clip17_2699_973">
<rect width="1.125" height="10.125" fill="white" transform="translate(15.6875 6.1875)"/>
</clipPath>
<clipPath id="clip18_2699_973">
<rect width="5.89669" height="5.89754" fill="white" transform="translate(10.915 15.1875)"/>
</clipPath>
<clipPath id="clip19_2699_973">
<rect width="4.5" height="4.5" fill="white" transform="translate(14 13.5)"/>
</clipPath>
<clipPath id="clip20_2699_973">
<rect width="2.25" height="2.25" fill="white" transform="translate(15.125 14.625)"/>
</clipPath>
<clipPath id="clip21_2699_973">
<rect width="2.25" height="1.125" fill="white" transform="translate(6.6875 15.1875)"/>
</clipPath>
<clipPath id="clip22_2699_973">
<rect width="1.125" height="2.25" fill="white" transform="translate(15.6875 23.0625)"/>
</clipPath>
<clipPath id="clip23_2699_973">
<rect width="2.25" height="1.125" fill="white" transform="translate(23.5625 15.1875)"/>
</clipPath>
<clipPath id="clip24_2699_973">
<rect width="4.5" height="4.5" fill="white" transform="translate(51.125 40.5)"/>
</clipPath>
<clipPath id="clip25_2699_973">
<rect width="7.44863" height="5.76112" fill="white" transform="translate(50.4941 21.3066)"/>
</clipPath>
<clipPath id="clip26_2699_973">
<rect width="7.44863" height="5.76113" fill="white" transform="translate(50.4941 30.3066)"/>
</clipPath>
</defs>
</svg>
