<svg width="616" height="616" viewBox="0 0 616 616" fill="none" xmlns="http://www.w3.org/2000/svg">
<g filter="url(#filter0_d_3498_1091)">
<path d="M66.7672 317.492C91.7707 345.798 123.418 356.796 139.025 391.187C149.724 414.761 144.705 442.671 152.609 467.322C163.443 501.111 199.038 523.809 234.521 523.931C270.004 524.053 303.827 503.949 324.882 475.389C331.788 466.022 337.773 455.491 347.453 449.033C361.316 439.784 379.3 440.973 395.898 439.494C436.827 435.847 475.613 412.864 498.466 378.715C498.466 378.715 557.752 308.761 515.783 208.685C503.584 179.596 483.809 152.881 456.54 137.029C429.271 121.176 381.819 120.799 353.742 135.172C323.891 150.454 304.044 183.948 271.325 191.306C252.359 195.57 232.779 190.028 213.681 186.404C186.891 181.318 159.582 178.159 132.531 181.594C100.693 185.638 68.5783 201.602 53.7265 237.495C48.525 250.065 46.7768 263.855 48.8502 277.301C50.7081 289.358 55.4069 304.631 66.7672 317.492Z" fill="#F5F5FF"/>
<path d="M312.807 110.798C305.925 102.158 295.203 97.442 284.481 94.7846C269.687 91.1181 253.779 90.836 239.428 95.9697C225.078 101.103 212.491 112.047 207.199 126.341C201.908 140.635 204.824 158.109 215.803 168.681C221.956 174.605 230.596 177.791 239.091 177.767C244.128 178.304 249.274 177.738 254.009 175.914C264.544 171.856 272.286 162.644 282.388 157.604C293.368 152.128 307.479 151.253 314.909 141.491C321.599 132.701 319.689 119.438 312.807 110.798Z" fill="#F5F5FF"/>
<path d="M114.871 416.989C113.724 414.64 112.657 412.262 111.96 409.747C109.729 401.689 111.35 392.5 107.023 385.346C101.59 376.361 88.2067 374.721 79.1022 379.951C69.9978 385.182 64.7913 395.415 62.5713 405.677C61.2037 411.997 60.8058 418.729 62.9704 424.821C65.4886 431.907 71.2162 437.412 77.4612 441.599C84.4048 446.253 92.5138 449.669 100.869 449.386C104.59 449.26 108.34 448.274 111.649 446.545C114.259 445.412 116.575 443.66 118.169 441.388C119.327 440.016 120.304 438.493 121.019 436.812C123.986 429.828 121.309 420.637 114.871 416.989Z" fill="#F5F5FF"/>
</g>
<path d="M444.089 416.391H183.226C180.778 416.391 178.774 414.388 178.774 411.94V244.561C178.774 242.113 180.778 240.109 183.226 240.109H444.089C446.537 240.109 448.541 242.113 448.541 244.561V411.94C448.541 414.388 446.537 416.391 444.089 416.391Z" fill="#7B70EE"/>
<path d="M441.862 252.928H185.451V399.296H441.862V252.928Z" fill="#D5CBFB"/>
<path d="M315.27 245.994C315.27 246.884 314.548 247.605 313.657 247.605C312.767 247.605 312.046 246.883 312.046 245.994C312.046 245.103 312.768 244.381 313.657 244.381C314.548 244.382 315.27 245.103 315.27 245.994Z" fill="#D5CBFB"/>
<path d="M484.848 473.91L451.713 421.173C449.842 418.197 446.574 416.391 443.059 416.391H307.882H300.403H184.257C180.742 416.391 177.473 418.197 175.603 421.173L142.467 473.91C141.53 475.403 141.196 477.177 141.489 478.891H485.825C486.119 477.179 485.786 475.403 484.848 473.91Z" fill="#D5CBFB"/>
<path d="M141.489 478.893C141.55 479.246 141.627 479.597 141.742 479.942L142.264 481.509C143.233 484.413 145.949 486.371 149.009 486.371H300.402H307.881H478.305C481.365 486.371 484.083 484.412 485.05 481.509L485.572 479.942C485.687 479.597 485.764 479.245 485.825 478.893H141.489Z" fill="#7B70EE"/>
<path d="M196.724 442.417L198.338 438.867H190.353L188.645 442.417H196.724Z" fill="#7B70EE"/>
<path d="M210.79 432.31L211.582 430.459L212.308 428.76H204.582L202.968 432.31H210.79Z" fill="#7B70EE"/>
<path d="M199.988 438.867L198.375 442.417H206.472L207.988 438.867H199.988Z" fill="#7B70EE"/>
<path d="M199.021 437.363L200.635 433.812H192.787L191.077 437.363H199.021Z" fill="#7B70EE"/>
<path d="M361.589 428.76L362.482 432.31H369.348L368.36 428.76H361.589Z" fill="#7B70EE"/>
<path d="M238.396 438.867L237.312 442.417H245.475L246.512 438.867H238.396Z" fill="#7B70EE"/>
<path d="M228.849 438.867L227.571 442.417H235.741L236.825 438.867H228.849Z" fill="#7B70EE"/>
<path d="M219.258 438.867L217.836 442.417H225.975L227.252 438.867H219.258Z" fill="#7B70EE"/>
<path d="M209.622 438.867L208.105 442.417H216.217L217.639 438.867H209.622Z" fill="#7B70EE"/>
<path d="M369.92 428.76L370.908 432.31H377.323L376.284 428.76H369.92Z" fill="#7B70EE"/>
<path d="M266.005 433.812L265.111 437.363H271.567L272.364 433.812H266.005Z" fill="#7B70EE"/>
<path d="M336.045 428.76L336.649 432.31H344.098L343.397 428.76H336.045Z" fill="#7B70EE"/>
<path d="M264.833 432.31L265.726 428.76H258.955L257.966 432.31H264.833Z" fill="#7B70EE"/>
<path d="M256.406 432.31L257.395 428.76H251.031L249.992 432.31H256.406Z" fill="#7B70EE"/>
<path d="M272.702 432.31L273.499 428.76H267.275L266.383 432.31H272.702Z" fill="#7B70EE"/>
<path d="M377.851 428.76L378.888 432.31H386.916L385.829 428.76H377.851Z" fill="#7B70EE"/>
<path d="M232.485 428.76L231.207 432.31H238.829L239.39 430.478L239.915 428.76H232.485Z" fill="#7B70EE"/>
<path d="M229.61 432.31L230.887 428.76H223.303L221.883 432.31H229.61Z" fill="#7B70EE"/>
<path d="M213.943 428.76L212.425 432.31H220.264L221.003 430.462L221.685 428.76H213.943Z" fill="#7B70EE"/>
<path d="M353.816 428.76L354.612 432.31H360.932L360.039 428.76H353.816Z" fill="#7B70EE"/>
<path d="M344.929 428.76L345.63 432.31H353.072L352.276 428.76H344.929Z" fill="#7B70EE"/>
<path d="M248.426 432.31L249.464 428.76H241.485L240.399 432.31H248.426Z" fill="#7B70EE"/>
<path d="M257.814 427.259L258.735 423.953H252.435L251.468 427.259H257.814Z" fill="#7B70EE"/>
<path d="M249.903 427.259L250.869 423.953H242.956L241.944 427.259H249.903Z" fill="#7B70EE"/>
<path d="M327.271 428.76L327.685 432.31H335.124L334.521 428.76H327.271Z" fill="#7B70EE"/>
<path d="M282.682 427.259L283.335 423.953H276.12L275.378 427.259H282.682Z" fill="#7B70EE"/>
<path d="M273.836 427.259L274.579 423.953H268.485L267.654 427.259H273.836Z" fill="#7B70EE"/>
<path d="M266.104 427.259L266.935 423.953H260.296L259.374 427.259H266.104Z" fill="#7B70EE"/>
<path d="M415.008 428.76L416.524 432.31H424.348L422.734 428.76H415.008Z" fill="#7B70EE"/>
<path d="M212.951 427.259L214.364 423.953H206.766L205.265 427.259H212.951Z" fill="#7B70EE"/>
<path d="M222.287 427.259L223.611 423.953H215.998L214.585 427.259H222.287Z" fill="#7B70EE"/>
<path d="M240.374 427.259L241.385 423.953H234.214L233.025 427.259H240.374Z" fill="#7B70EE"/>
<path d="M424.384 428.76L425.998 432.31H433.804L432.094 428.76H424.384Z" fill="#7B70EE"/>
<path d="M231.429 427.259L232.618 423.953H225.229L223.906 427.259H231.429Z" fill="#7B70EE"/>
<path d="M387.399 428.76L388.486 432.31H396.108L394.831 428.76H387.399Z" fill="#7B70EE"/>
<path d="M281.921 438.867L281.22 442.417H288.943L289.548 438.867H281.921Z" fill="#7B70EE"/>
<path d="M248.077 438.867L247.04 442.417H253.589L254.579 438.867H248.077Z" fill="#7B70EE"/>
<path d="M272.771 438.867L271.974 442.417H279.688L280.389 438.867H272.771Z" fill="#7B70EE"/>
<path d="M256.14 438.867L255.15 442.417H262.29L263.183 438.867H256.14Z" fill="#7B70EE"/>
<path d="M264.733 438.867L263.84 442.417H270.432L271.229 438.867H264.733Z" fill="#7B70EE"/>
<path d="M292.794 428.76L292.189 432.31H299.629L300.042 428.76H292.794Z" fill="#7B70EE"/>
<path d="M291.527 427.259L292.09 423.953H284.867L284.214 427.259H291.527Z" fill="#7B70EE"/>
<path d="M282.919 433.812L282.218 437.363H289.804L290.409 433.812H282.919Z" fill="#7B70EE"/>
<path d="M405.63 428.76L407.052 432.31H414.891L413.373 428.76H405.63Z" fill="#7B70EE"/>
<path d="M299.042 437.363L299.454 433.812H291.933L291.328 437.363H299.042Z" fill="#7B70EE"/>
<path d="M396.427 428.76L397.706 432.31H405.433L404.011 428.76H396.427Z" fill="#7B70EE"/>
<path d="M201.317 432.31L202.931 428.76H195.22L193.51 432.31H201.317Z" fill="#7B70EE"/>
<path d="M372.164 442.417L371.175 438.867H364.132L365.024 442.417H372.164Z" fill="#7B70EE"/>
<path d="M257.547 433.812L256.559 437.363H263.561L264.454 433.812H257.547Z" fill="#7B70EE"/>
<path d="M385.37 427.259L384.359 423.953H376.446L377.411 427.259H385.37Z" fill="#7B70EE"/>
<path d="M403.408 427.259L402.086 423.953H394.696L395.886 427.259H403.408Z" fill="#7B70EE"/>
<path d="M394.29 427.259L393.1 423.953H385.931L386.941 427.259H394.29Z" fill="#7B70EE"/>
<path d="M351.938 427.259L351.196 423.953H343.98L344.632 427.259H351.938Z" fill="#7B70EE"/>
<path d="M343.102 427.259L342.449 423.953H335.226L335.789 427.259H343.102Z" fill="#7B70EE"/>
<path d="M412.731 427.259L411.318 423.953H403.705L405.028 427.259H412.731Z" fill="#7B70EE"/>
<path d="M367.941 427.259L367.019 423.953H360.379L361.211 427.259H367.941Z" fill="#7B70EE"/>
<path d="M359.661 427.259L358.83 423.953H352.736L353.478 427.259H359.661Z" fill="#7B70EE"/>
<path d="M363.475 442.417L362.582 438.867H356.086L356.882 442.417H363.475Z" fill="#7B70EE"/>
<path d="M419.21 442.417L417.692 438.867H409.677L411.098 442.417H419.21Z" fill="#7B70EE"/>
<path d="M399.745 442.417L398.466 438.867H390.489L391.575 442.417H399.745Z" fill="#7B70EE"/>
<path d="M438.671 442.417L436.96 438.867H428.978L430.591 442.417H438.671Z" fill="#7B70EE"/>
<path d="M428.942 442.417L427.328 438.867H419.327L420.844 442.417H428.942Z" fill="#7B70EE"/>
<path d="M409.478 442.417L408.056 438.867H400.064L401.341 442.417H409.478Z" fill="#7B70EE"/>
<path d="M355.342 442.417L354.546 438.867H346.926L347.627 442.417H355.342Z" fill="#7B70EE"/>
<path d="M422.051 427.259L420.549 423.953H412.951L414.364 427.259H422.051Z" fill="#7B70EE"/>
<path d="M435.472 432.31H442.675L440.668 428.76H433.762L435.472 432.31Z" fill="#7B70EE"/>
<path d="M380.276 442.417L379.238 438.867H372.735L373.725 442.417H380.276Z" fill="#7B70EE"/>
<path d="M431.37 427.259L429.778 423.953H422.198L423.7 427.259H431.37Z" fill="#7B70EE"/>
<path d="M390.004 442.417L388.919 438.867H380.804L381.841 442.417H390.004Z" fill="#7B70EE"/>
<path d="M439.821 427.259L437.952 423.953H431.446L433.039 427.259H439.821Z" fill="#7B70EE"/>
<path d="M375.845 427.259L374.881 423.953H368.579L369.501 427.259H375.845Z" fill="#7B70EE"/>
<path d="M327.348 442.417L326.935 438.867H319.146L319.291 442.417H327.348Z" fill="#7B70EE"/>
<path d="M211.782 433.812L210.99 435.665L210.265 437.363H218.241L219.661 433.812H211.782Z" fill="#7B70EE"/>
<path d="M335.987 437.363L335.382 433.812H327.859L328.273 437.363H335.987Z" fill="#7B70EE"/>
<path d="M208.631 437.363L210.15 433.812H202.285L201.441 435.669L200.672 437.363H208.631Z" fill="#7B70EE"/>
<path d="M275.04 428.76L274.243 432.31H281.684L282.385 428.76H275.04Z" fill="#7B70EE"/>
<path d="M283.918 428.76L283.216 432.31H290.666L291.271 428.76H283.918Z" fill="#7B70EE"/>
<path d="M239.94 433.812L238.854 437.363H246.95L247.987 433.812H239.94Z" fill="#7B70EE"/>
<path d="M221.28 433.812L219.858 437.363H227.791L229.069 433.812H221.28Z" fill="#7B70EE"/>
<path d="M249.554 433.812L248.517 437.363H254.998L255.987 433.812H249.554Z" fill="#7B70EE"/>
<path d="M318.944 433.812L319.087 437.363H326.76L326.346 433.812H318.944Z" fill="#7B70EE"/>
<path d="M230.667 433.812L229.39 437.363H237.284L238.37 433.812H230.667Z" fill="#7B70EE"/>
<path d="M325.585 427.259L325.2 423.953H318.547L318.68 427.259H325.585Z" fill="#7B70EE"/>
<path d="M346.096 442.417L345.395 438.867H337.768L338.371 442.417H346.096Z" fill="#7B70EE"/>
<path d="M310.273 423.953L310.139 427.259H317.176L317.043 423.953H310.273Z" fill="#7B70EE"/>
<path d="M310.078 428.76L309.936 432.31H317.379L317.236 428.76H310.078Z" fill="#7B70EE"/>
<path d="M326.173 432.31L325.759 428.76H318.74L318.883 432.31H326.173Z" fill="#7B70EE"/>
<path d="M334.265 427.259L333.702 423.953H326.713L327.099 427.259H334.265Z" fill="#7B70EE"/>
<path d="M309.875 433.812L309.73 437.363H317.583L317.44 433.812H309.875Z" fill="#7B70EE"/>
<path d="M309.671 438.867L309.527 442.417H317.787L317.644 438.867H309.671Z" fill="#7B70EE"/>
<path d="M308.636 427.259L308.769 423.953H302.115L301.73 427.259H308.636Z" fill="#7B70EE"/>
<path d="M293.051 427.259H300.217L300.602 423.953H293.615L293.051 427.259Z" fill="#7B70EE"/>
<path d="M345.098 437.363L344.396 433.812H336.905L337.511 437.363H345.098Z" fill="#7B70EE"/>
<path d="M273.906 433.812L273.108 437.363H280.686L281.387 433.812H273.906Z" fill="#7B70EE"/>
<path d="M178.078 443.918L176.322 447.024H184.758L186.253 443.918H178.078Z" fill="#7B70EE"/>
<path d="M378.799 437.363L377.762 433.812H371.327L372.318 437.363H378.799Z" fill="#7B70EE"/>
<path d="M374.144 443.918L375.01 447.024H381.623L380.715 443.918H374.144Z" fill="#7B70EE"/>
<path d="M362.204 437.363L361.311 433.812H354.951L355.747 437.363H362.204Z" fill="#7B70EE"/>
<path d="M308.024 442.417L308.167 438.867H300.38L299.967 442.417H308.024Z" fill="#7B70EE"/>
<path d="M401.882 443.918L402.999 447.024H411.323L410.081 443.918H401.882Z" fill="#7B70EE"/>
<path d="M426.645 437.363L425.031 433.812H417.166L418.684 437.363H426.645Z" fill="#7B70EE"/>
<path d="M411.699 443.918L412.941 447.024H421.179L419.851 443.918H411.699Z" fill="#7B70EE"/>
<path d="M291.072 438.867L290.467 442.417H298.454L298.867 438.867H291.072Z" fill="#7B70EE"/>
<path d="M180.932 438.867L178.927 442.417H186.977L188.687 438.867H180.932Z" fill="#7B70EE"/>
<path d="M329.035 443.918L329.397 447.024H337.633L337.105 443.918H329.035Z" fill="#7B70EE"/>
<path d="M207.464 443.918L206.136 447.024H214.373L215.616 443.918H207.464Z" fill="#7B70EE"/>
<path d="M307.963 443.918H299.792L299.431 447.024H307.838L307.963 443.918Z" fill="#7B70EE"/>
<path d="M417.049 437.363L415.533 433.812H407.653L409.074 437.363H417.049Z" fill="#7B70EE"/>
<path d="M187.922 443.918L186.425 447.024H194.63L196.042 443.918H187.922Z" fill="#7B70EE"/>
<path d="M345.927 433.812L346.629 437.363H354.207L353.411 433.812H345.927Z" fill="#7B70EE"/>
<path d="M382.279 443.918L383.187 447.024H391.413L390.462 443.918H382.279Z" fill="#7B70EE"/>
<path d="M347.924 443.918L348.536 447.024H356.377L355.68 443.918H347.924Z" fill="#7B70EE"/>
<path d="M388.459 437.363L387.373 433.812H379.327L380.363 437.363H388.459Z" fill="#7B70EE"/>
<path d="M397.927 437.363L396.648 433.812H388.945L390.031 437.363H397.927Z" fill="#7B70EE"/>
<path d="M338.628 443.918L339.156 447.024H347.004L346.392 443.918H338.628Z" fill="#7B70EE"/>
<path d="M392.034 443.918L392.985 447.024H401.402L400.285 443.918H392.034Z" fill="#7B70EE"/>
<path d="M186.646 428.76L184.639 432.31H191.843L193.553 428.76H186.646Z" fill="#7B70EE"/>
<path d="M431.273 443.918L432.685 447.024H440.889L439.392 443.918H431.273Z" fill="#7B70EE"/>
<path d="M189.362 423.953L187.494 427.259H194.276L195.868 423.953H189.362Z" fill="#7B70EE"/>
<path d="M407.456 437.363L406.035 433.812H398.245L399.524 437.363H407.456Z" fill="#7B70EE"/>
<path d="M288.158 447.024L288.687 443.918H217.235L215.99 447.024H288.158Z" fill="#7B70EE"/>
<path d="M357.221 443.918L357.917 447.024H364.635L363.853 443.918H357.221Z" fill="#7B70EE"/>
<path d="M301.143 432.31H308.432L308.575 428.76H301.555L301.143 432.31Z" fill="#7B70EE"/>
<path d="M446.381 438.867H438.627L442.557 447.024H450.993L446.381 438.867Z" fill="#7B70EE"/>
<path d="M437.905 437.363H445.533L443.524 433.812H436.195L437.905 437.363Z" fill="#7B70EE"/>
<path d="M436.237 437.363L434.527 433.812H426.681L428.295 437.363H436.237Z" fill="#7B70EE"/>
<path d="M297.919 447.024L298.28 443.918H290.211L289.683 447.024H297.919Z" fill="#7B70EE"/>
<path d="M309.468 443.918L309.343 447.024H327.886L327.522 443.918H309.468Z" fill="#7B70EE"/>
<path d="M421.486 443.918L422.813 447.024H431.036L429.624 443.918H421.486Z" fill="#7B70EE"/>
<path d="M370.757 437.363L369.767 433.812H362.86L363.754 437.363H370.757Z" fill="#7B70EE"/>
<path d="M365.402 443.918L366.185 447.024H373.45L372.584 443.918H365.402Z" fill="#7B70EE"/>
<path d="M183.788 433.812L181.782 437.363H189.41L191.12 433.812H183.788Z" fill="#7B70EE"/>
<path d="M203.614 427.259L205.117 423.953H197.536L195.944 427.259H203.614Z" fill="#7B70EE"/>
<path d="M197.691 443.918L196.279 447.024H204.5L205.829 443.918H197.691Z" fill="#7B70EE"/>
<path d="M308.228 437.363L308.372 433.812H300.967L300.555 437.363H308.228Z" fill="#7B70EE"/>
<path d="M336.243 438.867H328.448L328.861 442.417H336.848L336.243 438.867Z" fill="#7B70EE"/>
<path d="M360.73 473.483H266.587C266.186 473.483 265.82 473.298 265.582 472.976C265.345 472.655 265.277 472.251 265.394 471.868L271.379 452.417C271.542 451.889 272.021 451.537 272.572 451.537H354.746C355.297 451.537 355.776 451.891 355.939 452.417L361.924 471.868C362.042 472.251 361.973 472.655 361.735 472.976C361.496 473.298 361.13 473.483 360.73 473.483ZM272.57 452.65C272.51 452.65 272.459 452.688 272.441 452.746L266.457 472.197C266.44 472.25 266.458 472.291 266.477 472.316C266.495 472.341 266.529 472.37 266.585 472.37H360.73C360.786 472.37 360.82 472.341 360.838 472.316C360.857 472.291 360.875 472.25 360.859 472.197L354.874 452.744C354.857 452.689 354.804 452.65 354.745 452.65H272.57Z" fill="#7B70EE"/>
<path d="M359.375 275.357L257.11 291.487L355.438 340.683L457.28 325.537L359.375 275.357Z" fill="#1C1C84"/>
<path d="M257.11 291.486V293.826L355.511 345.25L457.28 327.776V325.536L355.438 340.683L257.11 291.486Z" fill="#2525AD"/>
<path d="M295.147 346.836L293.58 357.233C293.58 357.233 335.573 390.949 394.784 374.371L395.691 366.247C343.353 375.004 310.407 358.039 295.147 346.836Z" fill="#2525AD"/>
<path d="M419.823 401.58C414.343 397.234 410.461 390.822 408.612 384.077C408.475 383.577 407.807 383.758 407.73 384.187C407.605 384.02 407.355 383.997 407.154 384.102C407.058 383.754 406.493 383.595 406.276 384.016C402.518 391.3 405.421 399.529 407.935 406.735C408.133 407.302 408.76 406.996 408.561 406.428C406.594 400.788 404.487 394.473 405.685 388.531C405.017 396.044 407.52 403.737 412.106 409.699C412.437 410.129 412.951 409.613 412.618 409.179C408.455 403.767 406.304 396.899 406.526 390.077C406.654 392.764 407.071 395.444 407.931 397.978C409.248 401.86 411.449 405.566 413.653 409.003C413.977 409.509 414.488 408.988 414.164 408.483C412.047 405.179 410.22 401.629 408.898 397.92C408.331 396.331 407.959 394.665 407.721 392.976C408.988 398.44 411.627 403.577 415.42 407.748C415.819 408.186 416.348 407.797 415.943 407.352C411.787 402.783 409.288 396.932 408.257 390.895C409.782 396.549 412.596 401.896 416.313 406.488C416.689 406.953 417.081 406.449 416.701 405.98C413.073 401.496 410.674 396.254 409.176 390.739C411.194 396.428 413.813 401.916 418.439 405.962C418.893 406.359 419.388 405.9 418.936 405.504C415.759 402.725 413.664 398.971 411.957 395.206C413.81 398.498 416.037 401.574 418.622 404.355C419.031 404.794 419.376 404.095 418.972 403.66C416.697 401.214 414.953 398.505 413.263 395.641C415.003 397.973 417.026 400.097 419.318 401.914C419.786 402.287 420.295 401.955 419.823 401.58Z" fill="#F0C64B"/>
<path d="M410.191 322.853C408.055 320.3 405.171 318.622 402.216 317.189C396.341 314.341 389.815 313.103 383.447 311.898C374.446 310.195 365.238 308.618 357.753 302.946C357.463 302.725 357.182 302.836 357.014 303.061C356.999 303.074 356.989 303.091 356.977 303.106C356.972 303.115 356.966 303.12 356.961 303.128C356.781 303.35 356.732 303.669 356.999 303.924C362.484 309.168 369.817 311.763 377.035 313.59C384.33 315.437 391.775 316.701 398.757 319.6C398.974 319.69 399.19 319.78 399.407 319.87C399.449 319.887 399.679 319.993 399.682 319.992C400.039 320.166 400.393 320.344 400.749 320.52C402.056 321.168 403.329 321.84 404.525 322.681C405.959 323.69 407.287 324.926 408.209 326.428C409.216 328.07 409.566 329.912 409.529 331.822C409.491 333.809 409.123 335.785 408.8 337.741C408.466 339.768 408.166 341.8 407.854 343.829C407.209 348.025 406.61 352.224 406.156 356.444C405.159 365.736 404.887 375.214 406.558 384.448C406.682 385.133 407.832 384.982 407.78 384.283C407.131 375.519 407.845 366.733 409.075 358.051C409.687 353.73 410.429 349.427 411.184 345.128C411.892 341.094 412.829 337.027 413.16 332.939C413.461 329.232 412.602 325.734 410.191 322.853Z" fill="#F0C64B"/>
<path d="M406.095 385.109C406.201 385.057 406.308 385.01 406.416 384.965C406.482 384.939 406.479 384.94 406.406 384.967C406.438 384.956 406.469 384.944 406.501 384.934C406.549 384.918 406.597 384.902 406.645 384.887C406.878 384.816 407.116 384.764 407.357 384.73C407.415 384.721 407.475 384.711 407.532 384.707C407.37 384.716 407.56 384.707 407.592 384.705C407.709 384.699 407.827 384.696 407.944 384.699C408.061 384.701 408.178 384.707 408.295 384.718C408.353 384.725 408.412 384.731 408.47 384.738C408.503 384.743 408.536 384.747 408.57 384.753C408.488 384.738 408.483 384.737 408.554 384.751C408.725 384.783 408.875 384.791 409.035 384.706C409.167 384.636 409.295 384.493 409.335 384.345C409.414 384.053 409.272 383.628 408.93 383.564C407.76 383.346 406.58 383.484 405.507 384.01C405.214 384.154 405.084 384.569 405.252 384.853C405.428 385.152 405.782 385.263 406.095 385.109Z" fill="#D8A32B"/>
<path d="M405.97 383.893C406.076 383.841 406.183 383.794 406.292 383.749C406.357 383.723 406.355 383.724 406.282 383.751C406.314 383.74 406.345 383.729 406.377 383.718C406.425 383.702 406.473 383.686 406.521 383.671C406.754 383.6 406.992 383.547 407.233 383.514C407.291 383.505 407.35 383.495 407.408 383.491C407.245 383.5 407.435 383.491 407.467 383.489C407.584 383.483 407.703 383.48 407.82 383.483C407.937 383.485 408.055 383.491 408.171 383.504C408.23 383.51 408.288 383.516 408.346 383.523C408.379 383.528 408.412 383.533 408.445 383.538C408.364 383.523 408.358 383.522 408.429 383.536C408.601 383.568 408.751 383.576 408.911 383.491C409.043 383.421 409.172 383.277 409.211 383.13C409.289 382.838 409.148 382.412 408.805 382.349C407.635 382.131 406.456 382.269 405.383 382.795C405.091 382.939 404.96 383.356 405.128 383.638C405.304 383.936 405.656 384.047 405.97 383.893Z" fill="#D8A32B"/>
<path d="M398.766 341.781L399.274 337.736L355.512 345.25L300.421 316.459L299.24 323.262L354.412 351.038L398.766 341.781Z" fill="#0C0C5B"/>
<path d="M354.412 351.037L299.239 323.262L295.147 346.835C310.407 358.037 343.353 375.003 395.691 366.247L398.765 341.781L354.412 351.037Z" fill="#1C1C84"/>
<path d="M287.53 383.02C289.972 389.598 284.725 397.612 275.811 400.921C266.898 404.23 261.81 400.057 258.244 394.014C253.029 385.176 258.056 380.409 266.969 377.1C275.884 373.792 285.088 376.442 287.53 383.02Z" fill="#FFF6DC"/>
<path d="M198.519 310.577C198.519 310.577 220.64 333.357 238.766 374.243C238.766 374.243 247.363 396.439 253.003 401.988C253.003 401.988 248.439 396.845 255.409 388.632C260.529 382.6 267.997 378.904 275.902 378.624C280.319 378.468 284.934 379.392 287.561 383.105C287.561 383.105 258.059 348.353 238.785 318.367C231.083 306.387 227.438 296.49 225.837 288.923C225.837 288.923 224.385 287.214 221.491 285.785C210.849 280.529 198.313 287.603 196.457 299.326C196.283 300.42 196.175 301.585 196.146 302.824C196.146 302.824 195.994 308.02 198.519 310.577Z" fill="white"/>
<path d="M253.003 401.989C253.003 401.989 262.686 413.671 284.613 399.654C284.613 399.654 298.185 390.6 291.41 374.829C291.41 374.829 277.335 364.337 266.238 351.038C255.14 337.738 241.413 319.631 230.023 295.683L227.119 293.926C227.119 293.926 229.212 305.282 242.768 324.419C256.324 343.557 281.33 375.596 281.33 375.596L285.154 380.204C287.349 382.849 288.103 386.482 286.891 389.699C285.164 394.28 280.096 399.705 265.947 400.528L257.111 386.81C257.111 386.81 248.531 393.916 253.003 401.989Z" fill="#F4E7BD"/>
<path d="M274.421 359.932C274.421 359.932 249.008 333.433 231.193 291.487C231.193 291.487 227.98 286.38 225.937 284.023C225.937 284.023 241.423 331.892 274.421 359.932Z" fill="white"/>
<path d="M227.682 352.241C233.029 342.598 244.582 336.22 255.58 336.772C259.494 336.968 259.483 332.1 255.58 331.904C242.536 331.25 229.605 337.76 223.28 349.171C223.28 349.171 225.781 355.67 227.682 352.241Z" fill="#F0C64B"/>
<path d="M188.313 369.969H138.438C131.826 369.969 126.416 364.559 126.416 357.947V331.973C126.416 325.361 131.826 319.951 138.438 319.951H188.313C194.925 319.951 200.335 325.361 200.335 331.973V357.947C200.335 364.559 194.925 369.969 188.313 369.969Z" fill="#2525AD"/>
<path d="M155.442 344.961V335.801L163.376 340.38L171.309 344.961L163.376 349.541L155.442 354.121V344.961Z" fill="#D5CBFB"/>
<path d="M148.935 259.653C148.935 244.381 136.554 232.002 121.284 232.002C106.013 232.002 93.6328 244.381 93.6328 259.653C93.6328 270.721 100.138 280.266 109.532 284.684V293.502H133.037V284.684C142.43 280.266 148.935 270.721 148.935 259.653Z" fill="white"/>
<path d="M133.794 298.058H108.774C107.52 298.058 106.495 297.033 106.495 295.779C106.495 294.525 107.52 293.5 108.774 293.5H133.795C135.048 293.5 136.074 294.525 136.074 295.779C136.073 297.033 135.048 298.058 133.794 298.058Z" fill="#F0C64B"/>
<path d="M121.284 310.993C116.235 310.993 112.143 306.9 112.143 301.851V300.34H130.427V301.851C130.425 306.9 126.333 310.993 121.284 310.993Z" fill="#F0C64B"/>
<path d="M133.794 302.617H108.774C107.52 302.617 106.495 301.591 106.495 300.338C106.495 299.085 107.52 298.059 108.774 298.059H133.795C135.048 298.059 136.074 299.084 136.074 300.338C136.073 301.592 135.048 302.617 133.794 302.617Z" fill="#D8A32B"/>
<path d="M123.799 293.503H122.503V255.089C122.503 254.417 121.956 253.87 121.284 253.87C120.612 253.87 120.065 254.417 120.065 255.089V293.503H118.769V255.089C118.769 253.701 119.897 252.574 121.284 252.574C122.672 252.574 123.799 253.701 123.799 255.089V293.503Z" fill="#F0C64B"/>
<path d="M77.8224 250.227L77.0635 254.184L88.6209 256.399C88.7761 255.049 89.0126 253.724 89.3256 252.428L77.8224 250.227Z" fill="#7B70EE"/>
<path d="M86.9769 232.002L84.54 235.216L93.7579 242.194C94.4958 241.067 95.3016 239.987 96.1689 238.962L86.9769 232.002Z" fill="#7B70EE"/>
<path d="M103.135 219.693L99.5352 221.506L104.717 231.778C105.874 231.102 107.073 230.491 108.313 229.957L103.135 219.693Z" fill="#7B70EE"/>
<path d="M165.504 254.184L164.745 250.227L153.24 252.428C153.553 253.723 153.791 255.049 153.945 256.399L165.504 254.184Z" fill="#7B70EE"/>
<path d="M158.025 235.216L155.588 232.002L146.396 238.962C147.264 239.988 148.068 241.067 148.808 242.194L158.025 235.216Z" fill="#7B70EE"/>
<path d="M143.032 221.506L139.432 219.693L134.253 229.958C135.494 230.492 136.692 231.103 137.849 231.779L143.032 221.506Z" fill="#7B70EE"/>
<path d="M123.344 227.368L123.244 215.674L119.212 215.711L119.313 227.361C119.966 227.322 120.621 227.297 121.283 227.297C121.977 227.298 122.663 227.326 123.344 227.368Z" fill="#7B70EE"/>
<path d="M529.728 470.842H412.873V493.881H529.728V470.842Z" fill="#F0C64B"/>
<path d="M424.155 470.842H419.449V493.881H424.155V470.842Z" fill="#D8A32B"/>
<path d="M431.221 470.842H426.514V493.881H431.221V470.842Z" fill="#D8A32B"/>
<path d="M516.087 470.842H511.38V493.881H516.087V470.842Z" fill="#D8A32B"/>
<path d="M523.151 470.842H518.443V493.881H523.151V470.842Z" fill="#D8A32B"/>
<path d="M540.971 458.004V454.459C540.971 449.422 536.872 445.324 531.836 445.324H427.688V467.14H531.836C536.872 467.14 540.971 463.042 540.971 458.004Z" fill="white"/>
<path d="M531.835 441.484H427.005V443.404V445.323H531.835C536.872 445.323 540.97 449.422 540.97 454.459V458.003C540.97 463.041 536.871 467.138 531.835 467.138H427.005V469.058V470.977H531.835C538.989 470.977 544.809 465.157 544.809 458.003V454.459C544.809 447.304 538.989 441.484 531.835 441.484Z" fill="#2525AD"/>
<path d="M533.875 450.207H427.687V451.953H533.875V450.207Z" fill="#F5F5FF"/>
<path d="M533.875 455.465H427.687V457.211H533.875V455.465Z" fill="#F5F5FF"/>
<path d="M533.875 460.723H427.687V462.468H533.875V460.723Z" fill="#F5F5FF"/>
<path d="M418.76 429.938V426.746C418.76 422.209 422.45 418.52 426.986 418.52H520.766V438.164H426.986C422.451 438.164 418.76 434.474 418.76 429.938Z" fill="white"/>
<path d="M426.986 415.062H521.379V416.791V418.519H426.986C422.45 418.519 418.76 422.209 418.76 426.746V429.938C418.76 434.474 422.45 438.164 426.986 438.164H521.379V439.892V441.621H426.986C420.544 441.621 415.303 436.38 415.303 429.938V426.746C415.303 420.303 420.544 415.062 426.986 415.062Z" fill="#F0C64B"/>
<path d="M425.149 424.488H520.766V422.916H425.149V424.488Z" fill="#F5F5FF"/>
<path d="M425.149 429.223H520.766V427.651H425.149V429.223Z" fill="#F5F5FF"/>
<path d="M425.149 433.957H520.766V432.385H425.149V433.957Z" fill="#F5F5FF"/>
<path d="M230.334 170.096C234.748 170.096 238.326 173.565 238.326 177.844V179.023C239.934 183.545 240.912 189.432 240.912 195.886C240.912 202.341 239.932 208.226 238.326 212.75V213.929C238.326 218.208 234.748 221.677 230.334 221.677C224.492 221.677 219.756 210.131 219.756 195.886C219.755 181.642 224.492 170.096 230.334 170.096Z" fill="#F0C64B"/>
<path d="M223.35 196.214C223.35 204.927 224.025 211.991 224.856 211.991C225.689 211.991 226.363 204.928 226.363 196.214C226.363 187.502 225.688 180.438 224.856 180.438C224.025 180.439 223.35 187.502 223.35 196.214Z" fill="#D8A32B"/>
<path d="M249.516 184.201V185.235V207.198V208.231C248.971 214.177 243.502 219.688 236.172 221.679V207.198V185.235V170.754C243.502 172.745 248.971 178.256 249.516 184.201Z" fill="#7B70EE"/>
<path d="M236.172 224.438C237.366 224.438 238.342 223.491 238.342 222.334V170.096C238.342 168.94 237.365 167.992 236.172 167.992C234.979 167.992 234.003 168.938 234.003 170.096V222.334C234.002 223.491 234.979 224.438 236.172 224.438Z" fill="#2525AD"/>
<path d="M188.816 170.096C184.402 170.096 180.824 173.565 180.824 177.844V179.023C179.216 183.545 178.238 189.432 178.238 195.886C178.238 202.341 179.218 208.226 180.824 212.75V213.929C180.824 218.208 184.402 221.677 188.816 221.677C194.658 221.677 199.394 210.131 199.394 195.886C199.394 181.642 194.658 170.096 188.816 170.096Z" fill="#F0C64B"/>
<path d="M195.8 196.214C195.8 204.927 195.124 211.991 194.293 211.991C193.461 211.991 192.786 204.928 192.786 196.214C192.786 187.502 193.461 180.438 194.293 180.438C195.124 180.439 195.8 187.502 195.8 196.214Z" fill="#D8A32B"/>
<path d="M169.633 184.201V185.235V207.198V208.231C170.177 214.177 175.646 219.688 182.977 221.679V207.198V185.235V170.754C175.646 172.745 170.177 178.256 169.633 184.201Z" fill="#7B70EE"/>
<path d="M182.978 224.438C181.784 224.438 180.809 223.491 180.809 222.334V170.096C180.809 168.94 181.784 167.992 182.978 167.992C184.172 167.992 185.148 168.938 185.148 170.096V222.334C185.148 223.491 184.171 224.438 182.978 224.438Z" fill="#2525AD"/>
<path d="M236.376 138.305C232.041 134.726 226.355 132.46 220.963 131.137C215.426 129.778 209.643 129.431 203.982 130.087C202.273 130.286 200.572 130.553 198.889 130.908C197.737 131.151 196.472 131.34 195.404 131.847C194.288 132.376 193.194 132.96 192.09 133.517C189.101 135.024 186.111 136.531 183.122 138.038C181.932 138.638 182.072 140.378 183.122 141.014C185.885 142.69 189.05 142.904 192.18 142.405C194.38 142.054 196.389 141.237 198.478 140.514C202.229 139.214 206.282 138.578 210.244 138.56C213.777 138.544 217.359 139.072 220.623 140.468C225.451 142.548 231.227 143.931 236.028 141.014C236.9 140.482 237.259 139.033 236.376 138.305Z" fill="#7B70EE"/>
<path d="M210.321 128.171L210.329 128.133C210.076 128.133 209.827 128.148 209.575 128.151C209.323 128.148 209.074 128.133 208.821 128.133L208.828 128.171C183.937 128.964 163.998 149.379 163.998 174.462V202.574C163.998 205.696 166.529 208.228 169.652 208.228V180.513L169.53 179.792C167.625 168.552 170.061 156.854 176.918 147.749C180.121 143.496 184.46 139.491 190.335 136.597C190.405 136.562 190.474 136.529 190.544 136.494C202.513 130.66 216.638 130.66 228.607 136.494C228.677 136.529 228.746 136.562 228.816 136.597C234.726 139.508 239.081 143.544 242.289 147.824C249.107 156.922 251.521 168.59 249.62 179.799L249.499 180.514V208.229C252.621 208.229 255.152 205.698 255.152 202.575V174.463C255.151 149.379 235.213 128.964 210.321 128.171Z" fill="#2525AD"/>
<path d="M552.108 228.932H478.599V335.238H552.108V228.932Z" fill="#D5CBFB"/>
<path d="M544.173 244.523H486.532V246.877H544.173V244.523Z" fill="#7B70EE"/>
<path d="M544.173 255.324H486.532V257.677H544.173V255.324Z" fill="#7B70EE"/>
<path d="M544.173 266.127H486.532V268.48H544.173V266.127Z" fill="#7B70EE"/>
<path d="M544.173 276.928H486.532V279.281H544.173V276.928Z" fill="#7B70EE"/>
<path d="M544.173 287.729H486.532V290.082H544.173V287.729Z" fill="#7B70EE"/>
<path d="M544.173 298.531H486.532V300.884H544.173V298.531Z" fill="#7B70EE"/>
<path d="M544.175 324.77H486.534V325.418H544.175V324.77Z" fill="white"/>
<path d="M494.409 314.56C497.354 315.055 500.344 315.203 503.32 314.945C506.07 314.706 508.99 314.242 511.555 313.185C513.381 312.432 515.371 310.37 514.089 308.286C512.961 306.449 510.128 306.261 508.252 306.707C506.064 307.229 504.117 308.661 502.787 310.45C501.455 312.24 500.529 314.821 502.104 316.758C503.561 318.547 506.227 318.905 508.374 318.607C509.58 318.44 510.755 318.041 511.811 317.43C512.304 317.144 512.761 316.806 513.199 316.443C513.77 315.97 514.37 315.341 515.143 315.234C516.07 315.105 516.283 315.807 516.874 316.312C517.284 316.663 517.811 316.781 518.34 316.729C518.991 316.662 519.584 316.381 520.188 316.148C520.948 315.854 521.699 315.744 522.514 315.763C526.02 315.846 529.555 316.312 533.05 316.597C533.673 316.647 533.671 316.064 533.05 316.014C530.448 315.802 527.845 315.202 525.243 314.991C524.055 314.895 522.834 314.713 521.641 314.81C520.52 314.903 519.62 315.484 518.547 315.715C517.341 315.972 517.174 314.76 516.208 314.388C515.351 314.059 514.407 314.336 513.674 314.826C512.78 315.424 512.052 316.202 511.096 316.719C510.024 317.296 508.814 317.644 507.598 317.718C505.627 317.837 502.692 317.236 502.277 314.904C501.897 312.776 503.663 310.58 505.2 309.324C506.78 308.034 508.911 307.18 510.97 307.557C511.949 307.737 513.228 308.198 513.468 309.297C513.748 310.58 512.615 311.614 511.586 312.118C510.385 312.707 508.996 313.008 507.698 313.297C506.256 313.619 504.796 313.846 503.324 313.974C500.437 314.224 497.529 314.364 494.672 313.883C494.056 313.779 493.792 314.457 494.409 314.56Z" fill="#7B70EE"/>
<path d="M576.679 293.461L563.757 286.449L567.555 279.448C568.377 277.933 570.272 277.371 571.787 278.193L579.222 282.227C580.738 283.049 581.299 284.944 580.478 286.459L576.679 293.461Z" fill="#D5CBFB"/>
<path d="M575.767 295.088L562.845 288.076L525.519 356.865L538.442 363.876L575.767 295.088Z" fill="#2525AD"/>
<path d="M571.607 292.838L566.992 290.334L529.667 359.122L534.282 361.626L571.607 292.838Z" fill="#1C1C84"/>
<path d="M578.98 292.831L562.981 284.15L561.303 287.243L577.302 295.924L578.98 292.831Z" fill="#F0C64B"/>
<path d="M538.453 363.908L525.531 356.896L524.22 368.62L529.339 371.398L538.453 363.908Z" fill="#D5CBFB"/>
<path d="M529.338 371.399L524.219 368.621L523.359 376.311L529.338 371.399Z" fill="#2525AD"/>
<path d="M114.533 174.012L127.756 187.235" stroke="#7B70EE" stroke-width="2.1457" stroke-miterlimit="10"/>
<path d="M128.023 174.012L114.8 187.235" stroke="#7B70EE" stroke-width="2.1457" stroke-miterlimit="10"/>
<path d="M559.373 372.346L572.596 385.569" stroke="#7B70EE" stroke-width="2.1457" stroke-miterlimit="10"/>
<path d="M572.861 372.346L559.638 385.569" stroke="#7B70EE" stroke-width="2.1457" stroke-miterlimit="10"/>
<path d="M77.2217 326.006L88.9318 337.715" stroke="#2525AD" stroke-width="1.9001" stroke-miterlimit="10"/>
<path d="M89.166 326.006L77.457 337.715" stroke="#2525AD" stroke-width="1.9001" stroke-miterlimit="10"/>
<path d="M71.0173 228.932C71.0173 234.217 66.7324 238.502 61.4471 238.502C56.1618 238.502 51.877 234.217 51.877 228.932C51.877 223.646 56.1618 219.361 61.4471 219.361C66.7324 219.36 71.0173 223.645 71.0173 228.932Z" stroke="#7B70EE" stroke-width="2.1457" stroke-miterlimit="10"/>
<path d="M445.533 221.562C450.819 221.562 455.103 217.278 455.103 211.992C455.103 206.707 450.819 202.422 445.533 202.422C440.248 202.422 435.963 206.707 435.963 211.992C435.963 217.278 440.248 221.562 445.533 221.562Z" stroke="#7B70EE" stroke-width="2.1457" stroke-miterlimit="10"/>
<path d="M489.193 198.647C489.193 199.99 488.104 201.079 486.761 201.079C485.418 201.079 484.329 199.99 484.329 198.647C484.329 197.304 485.418 196.215 486.761 196.215C488.104 196.215 489.193 197.304 489.193 198.647Z" stroke="#2525AD" stroke-width="1.9001" stroke-miterlimit="10"/>
<path d="M254.684 117.561C254.684 118.904 253.595 119.993 252.252 119.993C250.909 119.993 249.82 118.904 249.82 117.561C249.82 116.218 250.909 115.129 252.252 115.129C253.595 115.129 254.684 116.218 254.684 117.561Z" stroke="#2525AD" stroke-width="1.9001" stroke-miterlimit="10"/>
<path d="M99.5067 426.176V431.927C91.7796 432.362 85.6221 438.768 85.6221 446.602V451.496C85.6221 459.524 92.0851 466.059 100.078 466.2C102.981 481.947 116.772 493.882 133.36 493.882C152.056 493.882 167.213 478.726 167.213 460.029V426.176H99.5067ZM90.3788 451.495V446.601C90.3788 441.39 94.4038 437.107 99.5067 436.682V460.027C99.5067 460.493 99.5227 460.954 99.5412 461.415C94.4222 461.007 90.3788 456.718 90.3788 451.495Z" fill="#2525AD"/>
<path d="M150.349 387.637C146.042 385.416 140.383 386.463 136.921 389.855C136.3 384.915 131.605 381.182 126.682 380.445C121.758 379.708 116.762 381.434 112.441 383.909C108.204 386.336 104.248 389.703 102.473 394.252C100.698 398.801 101.692 404.664 105.714 407.431C107.348 408.554 109.43 408.871 111.385 408.543C111.643 410.091 112.255 411.567 113.262 412.79C116.616 416.869 123.543 417.272 127.348 413.61C130.236 416.166 134.669 416.811 138.165 415.185C138.926 414.831 139.629 414.369 140.268 413.831C140.011 417.22 138.723 420.538 136.555 423.16C140.755 421.698 144.346 418.567 146.364 414.603C147.687 412.005 148.31 409.069 148.227 406.157C151.497 405.527 154.497 403.135 155.561 399.934C157.093 395.334 154.657 389.857 150.349 387.637Z" fill="#D5CBFB"/>
<path d="M302.279 184.425L302.273 184.424C302.098 184.409 301.915 184.4 301.731 184.4C298.128 184.4 295.197 187.331 295.197 190.934C295.197 194.536 298.128 197.467 301.731 197.467C301.915 197.467 302.095 197.46 302.264 197.445C305.631 197.168 308.264 194.308 308.264 190.934C308.264 187.56 305.635 184.701 302.279 184.425Z" fill="#2525AD"/>
<path d="M325.175 190.934C325.175 189.805 324.735 188.745 323.935 187.945C323.137 187.147 322.075 186.707 320.947 186.707H318.527L318.278 185.889C317.954 184.822 317.523 183.783 316.999 182.802L316.596 182.048L318.309 180.335C319.957 178.687 319.957 176.005 318.309 174.356C317.511 173.558 316.449 173.118 315.319 173.118C314.189 173.118 313.128 173.558 312.33 174.355L310.617 176.067L309.863 175.665C308.882 175.14 307.843 174.71 306.776 174.386L305.959 174.137V171.717C305.959 169.715 304.535 167.972 302.574 167.574C302.298 167.519 302.013 167.49 301.732 167.49C300.604 167.49 299.542 167.93 298.743 168.728C297.945 169.528 297.505 170.589 297.505 171.717V174.137L296.688 174.386C295.622 174.71 294.583 175.141 293.601 175.665L292.847 176.067L291.135 174.355C289.487 172.708 286.804 172.708 285.156 174.355C284.359 175.153 283.919 176.215 283.919 177.345C283.919 178.475 284.359 179.535 285.157 180.334L286.869 182.046L286.467 182.8C285.942 183.782 285.512 184.821 285.187 185.888L284.938 186.706H282.518C280.187 186.706 278.291 188.602 278.291 190.933C278.291 192.061 278.731 193.123 279.529 193.922C280.328 194.72 281.389 195.16 282.518 195.16H284.938L285.187 195.977C285.512 197.043 285.942 198.082 286.467 199.064L286.869 199.818L285.157 201.53C283.509 203.179 283.509 205.861 285.157 207.509C285.955 208.306 287.016 208.746 288.147 208.746C289.277 208.746 290.338 208.306 291.136 207.508L292.848 205.796L293.602 206.198C294.584 206.723 295.623 207.153 296.69 207.478L297.507 207.727V210.147C297.507 212.478 299.403 214.374 301.734 214.374C302.007 214.374 302.284 214.347 302.555 214.294L302.685 214.267C303.456 214.089 304.158 213.7 304.722 213.136C305.521 212.336 305.961 211.276 305.961 210.147V207.727L306.777 207.478C307.844 207.154 308.883 206.723 309.865 206.198L310.619 205.796L312.331 207.509C313.127 208.305 314.189 208.744 315.32 208.744C316.451 208.744 317.513 208.305 318.31 207.508C319.107 206.71 319.547 205.648 319.547 204.518C319.547 203.389 319.107 202.327 318.309 201.529L316.596 199.818L316.999 199.064C317.524 198.082 317.954 197.042 318.279 195.977L318.528 195.16H320.948C323.278 195.161 325.175 193.265 325.175 190.934ZM310.477 199.023C308.447 201.217 305.692 202.562 302.72 202.806C302.403 202.833 302.067 202.847 301.731 202.847C295.162 202.847 289.818 197.503 289.818 190.934C289.818 184.365 295.162 179.021 301.731 179.021C302.069 179.021 302.406 179.035 302.734 179.064C305.694 179.306 308.447 180.649 310.478 182.845C312.521 185.052 313.646 187.925 313.646 190.935C313.644 193.944 312.52 196.817 310.477 199.023Z" fill="#2525AD"/>
<path d="M483.175 374.991L483.173 374.995C483.122 375.098 483.076 375.207 483.031 375.319C482.186 377.513 483.284 379.987 485.479 380.831C487.673 381.676 490.147 380.577 490.991 378.383C491.034 378.271 491.071 378.16 491.102 378.053C491.723 375.936 490.598 373.662 488.543 372.871C486.489 372.08 484.13 373.011 483.175 374.991Z" fill="#2525AD"/>
<path d="M492.51 362.57C491.823 362.305 491.072 362.325 490.399 362.623C489.725 362.923 489.208 363.466 488.944 364.153L488.376 365.628L487.819 365.587C487.093 365.534 486.359 365.554 485.638 365.643L485.085 365.712L484.443 364.267C483.826 362.876 482.192 362.247 480.801 362.865C480.127 363.164 479.611 363.707 479.346 364.396C479.081 365.084 479.1 365.834 479.399 366.507L480.041 367.952L479.619 368.316C479.069 368.792 478.563 369.323 478.116 369.897L477.772 370.337L476.297 369.769C475.077 369.299 473.682 369.758 472.979 370.859C472.881 371.014 472.797 371.181 472.73 371.352C472.466 372.039 472.485 372.79 472.783 373.464C473.083 374.138 473.626 374.655 474.314 374.919L475.788 375.487L475.748 376.043C475.695 376.769 475.714 377.503 475.803 378.224L475.872 378.778L474.427 379.42C473.037 380.038 472.408 381.671 473.025 383.062C473.324 383.735 473.868 384.252 474.556 384.517C475.244 384.782 475.994 384.764 476.668 384.464L478.113 383.822L478.478 384.245C478.952 384.794 479.484 385.301 480.058 385.748L480.498 386.092L479.93 387.566C479.383 388.987 480.094 390.586 481.515 391.133C482.202 391.398 482.952 391.378 483.626 391.08C484.3 390.781 484.816 390.237 485.081 389.55L485.649 388.075L486.206 388.116C486.932 388.169 487.666 388.149 488.387 388.06L488.94 387.991L489.582 389.437C490.199 390.827 491.833 391.456 493.224 390.839C493.896 390.539 494.414 389.996 494.679 389.307C494.943 388.62 494.925 387.869 494.626 387.196L493.984 385.75L494.406 385.386C494.956 384.91 495.462 384.379 495.909 383.805L496.253 383.365L497.728 383.933C499.148 384.48 500.747 383.769 501.294 382.349C501.358 382.182 501.406 382.008 501.439 381.829L501.452 381.744C501.525 381.233 501.452 380.713 501.24 380.237C500.941 379.563 500.397 379.046 499.71 378.782L498.235 378.214L498.276 377.657C498.328 376.932 498.309 376.197 498.221 375.477L498.152 374.922L499.597 374.28C500.268 373.982 500.784 373.438 501.05 372.749C501.315 372.06 501.297 371.31 500.999 370.637C500.699 369.965 500.156 369.447 499.467 369.182C498.78 368.918 498.03 368.936 497.356 369.235L495.912 369.877L495.547 369.455C495.072 368.905 494.539 368.399 493.966 367.952L493.527 367.608L494.095 366.133C494.64 364.718 493.931 363.117 492.51 362.57ZM493.992 373.422C494.853 375.174 495.025 377.167 494.478 379.035C494.42 379.236 494.35 379.443 494.271 379.647C492.73 383.649 488.22 385.652 484.219 384.111C480.217 382.569 478.214 378.06 479.755 374.059C479.834 373.853 479.923 373.651 480.016 373.459C480.859 371.712 482.323 370.35 484.136 369.628C485.96 368.902 487.974 368.89 489.807 369.596C491.64 370.3 493.126 371.66 493.992 373.422Z" fill="#2525AD"/>
<defs>
<filter id="filter0_d_3498_1091" x="43.999" y="92.0684" width="490.808" height="439.863" filterUnits="userSpaceOnUse" color-interpolation-filters="sRGB">
<feFlood flood-opacity="0" result="BackgroundImageFix"/>
<feColorMatrix in="SourceAlpha" type="matrix" values="0 0 0 0 0 0 0 0 0 0 0 0 0 0 0 0 0 0 127 0" result="hardAlpha"/>
<feOffset dy="4"/>
<feGaussianBlur stdDeviation="2"/>
<feComposite in2="hardAlpha" operator="out"/>
<feColorMatrix type="matrix" values="0 0 0 0 0 0 0 0 0 0 0 0 0 0 0 0 0 0 0.25 0"/>
<feBlend mode="normal" in2="BackgroundImageFix" result="effect1_dropShadow_3498_1091"/>
<feBlend mode="normal" in="SourceGraphic" in2="effect1_dropShadow_3498_1091" result="shape"/>
</filter>
</defs>
</svg>
